<svg width="335" height="36" viewBox="0 0 335 36" fill="none" xmlns="http://www.w3.org/2000/svg">
<path d="M2 7.09717L4.37943 13.883C5.48696 17.0416 9.22312 18.377 12.0818 16.636L16.7286 13.8062C19.1299 12.3438 18.5059 8.69758 15.7549 8.11695V8.11695C13.5171 7.64464 11.5541 9.67204 12.0984 11.8934L13.1296 16.1024C13.7686 18.7102 16.1062 20.5442 18.7912 20.5442H23.4157" stroke="url(#paint0_linear_83_3928)" stroke-width="3.73529"/>
<path d="M28.2756 35V8.81818H33.7216V18.6619H33.8878C34.1264 18.1335 34.4716 17.5966 34.9233 17.0511C35.3835 16.4972 35.9801 16.0369 36.7131 15.6705C37.4545 15.2955 38.375 15.108 39.4744 15.108C40.9063 15.108 42.2273 15.483 43.4375 16.233C44.6477 16.9744 45.6151 18.0952 46.3395 19.5952C47.0639 21.0866 47.4261 22.9574 47.4261 25.2074C47.4261 27.3977 47.0724 29.2472 46.3651 30.7557C45.6662 32.2557 44.7116 33.3935 43.5014 34.169C42.2997 34.9361 40.9531 35.3196 39.4616 35.3196C38.4048 35.3196 37.5057 35.1449 36.7642 34.7955C36.0312 34.446 35.4304 34.0071 34.9616 33.4787C34.4929 32.9418 34.1349 32.4006 33.8878 31.8551H33.6449V35H28.2756ZM33.6065 25.1818C33.6065 26.3494 33.7685 27.3679 34.0923 28.2372C34.4162 29.1065 34.8849 29.7841 35.4986 30.2699C36.1122 30.7472 36.858 30.9858 37.7358 30.9858C38.6222 30.9858 39.3722 30.7429 39.9858 30.2571C40.5994 29.7628 41.0639 29.081 41.3793 28.2116C41.7031 27.3338 41.8651 26.3239 41.8651 25.1818C41.8651 24.0483 41.7074 23.0511 41.392 22.1903C41.0767 21.3295 40.6122 20.6562 39.9986 20.1705C39.3849 19.6847 38.6307 19.4418 37.7358 19.4418C36.8494 19.4418 36.0994 19.6761 35.4858 20.1449C34.8807 20.6136 34.4162 21.2784 34.0923 22.1392C33.7685 23 33.6065 24.0142 33.6065 25.1818ZM59.9322 35.3835C57.9464 35.3835 56.229 34.9616 54.7802 34.1179C53.3398 33.2656 52.2276 32.081 51.4435 30.5639C50.6594 29.0384 50.2674 27.2699 50.2674 25.2585C50.2674 23.2301 50.6594 21.4574 51.4435 19.9403C52.2276 18.4148 53.3398 17.2301 54.7802 16.3864C56.229 15.5341 57.9464 15.108 59.9322 15.108C61.918 15.108 63.631 15.5341 65.0714 16.3864C66.5202 17.2301 67.6367 18.4148 68.4208 19.9403C69.2049 21.4574 69.5969 23.2301 69.5969 25.2585C69.5969 27.2699 69.2049 29.0384 68.4208 30.5639C67.6367 32.081 66.5202 33.2656 65.0714 34.1179C63.631 34.9616 61.918 35.3835 59.9322 35.3835ZM59.9577 31.1648C60.8612 31.1648 61.6154 30.9091 62.2205 30.3977C62.8256 29.8778 63.2816 29.1705 63.5884 28.2756C63.9038 27.3807 64.0614 26.3622 64.0614 25.2202C64.0614 24.0781 63.9038 23.0597 63.5884 22.1648C63.2816 21.2699 62.8256 20.5625 62.2205 20.0426C61.6154 19.5227 60.8612 19.2628 59.9577 19.2628C59.0458 19.2628 58.2788 19.5227 57.6566 20.0426C57.043 20.5625 56.5785 21.2699 56.2631 22.1648C55.9563 23.0597 55.8029 24.0781 55.8029 25.2202C55.8029 26.3622 55.9563 27.3807 56.2631 28.2756C56.5785 29.1705 57.043 29.8778 57.6566 30.3977C58.2788 30.9091 59.0458 31.1648 59.9577 31.1648ZM73.1381 35V15.3636H78.3285V18.8281H78.5586C78.9677 17.6776 79.6495 16.7699 80.604 16.1051C81.5586 15.4403 82.7006 15.108 84.0302 15.108C85.3768 15.108 86.5231 15.4446 87.4691 16.1179C88.4151 16.7827 89.0458 17.6861 89.3612 18.8281H89.5657C89.9663 17.7031 90.6907 16.804 91.739 16.1307C92.7958 15.4489 94.0444 15.108 95.4847 15.108C97.3171 15.108 98.8043 15.6918 99.9464 16.8594C101.097 18.0185 101.672 19.6634 101.672 21.794V35H96.239V22.8679C96.239 21.777 95.9492 20.9588 95.3697 20.4134C94.7901 19.8679 94.0657 19.5952 93.1964 19.5952C92.2077 19.5952 91.4364 19.9105 90.8825 20.5412C90.3285 21.1634 90.0515 21.9858 90.0515 23.0085V35H84.7717V22.7528C84.7717 21.7898 84.4947 21.0227 83.9407 20.4517C83.3952 19.8807 82.6751 19.5952 81.7802 19.5952C81.1751 19.5952 80.6296 19.7486 80.1438 20.0554C79.6665 20.3537 79.2873 20.7756 79.006 21.321C78.7248 21.858 78.5842 22.4886 78.5842 23.2131V35H73.1381ZM106.076 35V8.81818H111.522V18.6619H111.689C111.927 18.1335 112.272 17.5966 112.724 17.0511C113.184 16.4972 113.781 16.0369 114.514 15.6705C115.255 15.2955 116.176 15.108 117.275 15.108C118.707 15.108 120.028 15.483 121.238 16.233C122.449 16.9744 123.416 18.0952 124.14 19.5952C124.865 21.0866 125.227 22.9574 125.227 25.2074C125.227 27.3977 124.873 29.2472 124.166 30.7557C123.467 32.2557 122.512 33.3935 121.302 34.169C120.1 34.9361 118.754 35.3196 117.262 35.3196C116.206 35.3196 115.306 35.1449 114.565 34.7955C113.832 34.446 113.231 34.0071 112.762 33.4787C112.294 32.9418 111.936 32.4006 111.689 31.8551H111.446V35H106.076ZM111.407 25.1818C111.407 26.3494 111.569 27.3679 111.893 28.2372C112.217 29.1065 112.686 29.7841 113.299 30.2699C113.913 30.7472 114.659 30.9858 115.537 30.9858C116.423 30.9858 117.173 30.7429 117.787 30.2571C118.4 29.7628 118.865 29.081 119.18 28.2116C119.504 27.3338 119.666 26.3239 119.666 25.1818C119.666 24.0483 119.508 23.0511 119.193 22.1903C118.877 21.3295 118.413 20.6562 117.799 20.1705C117.186 19.6847 116.431 19.4418 115.537 19.4418C114.65 19.4418 113.9 19.6761 113.287 20.1449C112.681 20.6136 112.217 21.2784 111.893 22.1392C111.569 23 111.407 24.0142 111.407 25.1818ZM137.733 35.3835C135.747 35.3835 134.03 34.9616 132.581 34.1179C131.141 33.2656 130.028 32.081 129.244 30.5639C128.46 29.0384 128.068 27.2699 128.068 25.2585C128.068 23.2301 128.46 21.4574 129.244 19.9403C130.028 18.4148 131.141 17.2301 132.581 16.3864C134.03 15.5341 135.747 15.108 137.733 15.108C139.719 15.108 141.432 15.5341 142.872 16.3864C144.321 17.2301 145.438 18.4148 146.222 19.9403C147.006 21.4574 147.398 23.2301 147.398 25.2585C147.398 27.2699 147.006 29.0384 146.222 30.5639C145.438 32.081 144.321 33.2656 142.872 34.1179C141.432 34.9616 139.719 35.3835 137.733 35.3835ZM137.759 31.1648C138.662 31.1648 139.416 30.9091 140.021 30.3977C140.626 29.8778 141.082 29.1705 141.389 28.2756C141.705 27.3807 141.862 26.3622 141.862 25.2202C141.862 24.0781 141.705 23.0597 141.389 22.1648C141.082 21.2699 140.626 20.5625 140.021 20.0426C139.416 19.5227 138.662 19.2628 137.759 19.2628C136.847 19.2628 136.08 19.5227 135.457 20.0426C134.844 20.5625 134.379 21.2699 134.064 22.1648C133.757 23.0597 133.604 24.0781 133.604 25.2202C133.604 26.3622 133.757 27.3807 134.064 28.2756C134.379 29.1705 134.844 29.8778 135.457 30.3977C136.08 30.9091 136.847 31.1648 137.759 31.1648ZM156.385 8.81818V35H150.939V8.81818H156.385ZM169.62 35.3835C167.634 35.3835 165.917 34.9616 164.468 34.1179C163.027 33.2656 161.915 32.081 161.131 30.5639C160.347 29.0384 159.955 27.2699 159.955 25.2585C159.955 23.2301 160.347 21.4574 161.131 19.9403C161.915 18.4148 163.027 17.2301 164.468 16.3864C165.917 15.5341 167.634 15.108 169.62 15.108C171.605 15.108 173.319 15.5341 174.759 16.3864C176.208 17.2301 177.324 18.4148 178.108 19.9403C178.892 21.4574 179.284 23.2301 179.284 25.2585C179.284 27.2699 178.892 29.0384 178.108 30.5639C177.324 32.081 176.208 33.2656 174.759 34.1179C173.319 34.9616 171.605 35.3835 169.62 35.3835ZM169.645 31.1648C170.549 31.1648 171.303 30.9091 171.908 30.3977C172.513 29.8778 172.969 29.1705 173.276 28.2756C173.591 27.3807 173.749 26.3622 173.749 25.2202C173.749 24.0781 173.591 23.0597 173.276 22.1648C172.969 21.2699 172.513 20.5625 171.908 20.0426C171.303 19.5227 170.549 19.2628 169.645 19.2628C168.733 19.2628 167.966 19.5227 167.344 20.0426C166.73 20.5625 166.266 21.2699 165.951 22.1648C165.644 23.0597 165.49 24.0781 165.49 25.2202C165.49 26.3622 165.644 27.3807 165.951 28.2756C166.266 29.1705 166.73 29.8778 167.344 30.3977C167.966 30.9091 168.733 31.1648 169.645 31.1648ZM191.698 35.3835C189.712 35.3835 187.995 34.9616 186.546 34.1179C185.105 33.2656 183.993 32.081 183.209 30.5639C182.425 29.0384 182.033 27.2699 182.033 25.2585C182.033 23.2301 182.425 21.4574 183.209 19.9403C183.993 18.4148 185.105 17.2301 186.546 16.3864C187.995 15.5341 189.712 15.108 191.698 15.108C193.684 15.108 195.397 15.5341 196.837 16.3864C198.286 17.2301 199.402 18.4148 200.186 19.9403C200.971 21.4574 201.363 23.2301 201.363 25.2585C201.363 27.2699 200.971 29.0384 200.186 30.5639C199.402 32.081 198.286 33.2656 196.837 34.1179C195.397 34.9616 193.684 35.3835 191.698 35.3835ZM191.723 31.1648C192.627 31.1648 193.381 30.9091 193.986 30.3977C194.591 29.8778 195.047 29.1705 195.354 28.2756C195.669 27.3807 195.827 26.3622 195.827 25.2202C195.827 24.0781 195.669 23.0597 195.354 22.1648C195.047 21.2699 194.591 20.5625 193.986 20.0426C193.381 19.5227 192.627 19.2628 191.723 19.2628C190.811 19.2628 190.044 19.5227 189.422 20.0426C188.809 20.5625 188.344 21.2699 188.029 22.1648C187.722 23.0597 187.569 24.0781 187.569 25.2202C187.569 26.3622 187.722 27.3807 188.029 28.2756C188.344 29.1705 188.809 29.8778 189.422 30.3977C190.044 30.9091 190.811 31.1648 191.723 31.1648Z" fill="#111111"/>
<defs>
<linearGradient id="paint0_linear_83_3928" x1="3.5" y1="9.50011" x2="23" y2="18.5001" gradientUnits="userSpaceOnUse">
<stop stop-color="#FFFBA4"/>
<stop offset="0.32" stop-color="#FFCAA4"/>
<stop offset="0.65" stop-color="#C2DEFF"/>
<stop offset="1" stop-color="#FFD3F0"/>
</linearGradient>
</defs>
</svg>
