<svg width="56" height="56" viewBox="0 0 56 56" fill="none" xmlns="http://www.w3.org/2000/svg">
<path d="M45.3419 30.2867C45.4352 29.54 45.5052 28.7934 45.5052 28C45.5052 27.2067 45.4352 26.46 45.3419 25.7134L50.2652 21.8634C50.7086 21.5134 50.8252 20.8834 50.5452 20.37L45.8786 12.2967C45.6686 11.9234 45.2719 11.7134 44.8519 11.7134C44.7119 11.7134 44.5719 11.7367 44.4552 11.7834L38.6452 14.1167C37.4319 13.1834 36.1252 12.4134 34.7019 11.83L33.8152 5.64669C33.7452 5.08669 33.2552 4.66669 32.6719 4.66669H23.3386C22.7552 4.66669 22.2652 5.08669 22.1952 5.64669L21.3086 11.83C19.8852 12.4134 18.5786 13.2067 17.3652 14.1167L11.5552 11.7834C11.4152 11.7367 11.2752 11.7134 11.1352 11.7134C10.7386 11.7134 10.3419 11.9234 10.1319 12.2967L5.46524 20.37C5.16191 20.8834 5.30191 21.5134 5.74524 21.8634L10.6686 25.7134C10.5752 26.46 10.5052 27.23 10.5052 28C10.5052 28.77 10.5752 29.54 10.6686 30.2867L5.74524 34.1367C5.30191 34.4867 5.18524 35.1167 5.46524 35.63L10.1319 43.7034C10.3419 44.0767 10.7386 44.2867 11.1586 44.2867C11.2986 44.2867 11.4386 44.2634 11.5552 44.2167L17.3652 41.8834C18.5786 42.8167 19.8852 43.5867 21.3086 44.17L22.1952 50.3534C22.2652 50.9134 22.7552 51.3334 23.3386 51.3334H32.6719C33.2552 51.3334 33.7452 50.9134 33.8152 50.3534L34.7019 44.17C36.1252 43.5867 37.4319 42.7934 38.6452 41.8834L44.4552 44.2167C44.5952 44.2634 44.7352 44.2867 44.8752 44.2867C45.2719 44.2867 45.6686 44.0767 45.8786 43.7034L50.5452 35.63C50.8252 35.1167 50.7086 34.4867 50.2652 34.1367L45.3419 30.2867ZM40.7219 26.2967C40.8152 27.02 40.8386 27.51 40.8386 28C40.8386 28.49 40.7919 29.0034 40.7219 29.7034L40.3952 32.34L42.4719 33.9734L44.9919 35.9334L43.3586 38.7567L40.3952 37.5667L37.9686 36.5867L35.8686 38.1734C34.8652 38.92 33.9086 39.48 32.9519 39.8767L30.4786 40.88L30.1052 43.5167L29.6386 46.6667H26.3719L25.5552 40.88L23.0819 39.8767C22.0786 39.4567 21.1452 38.92 20.2119 38.22L18.0886 36.5867L15.6152 37.59L12.6519 38.78L11.0186 35.9567L13.5386 33.9967L15.6152 32.3634L15.2886 29.7267C15.2186 29.0034 15.1719 28.4667 15.1719 28C15.1719 27.5334 15.2186 26.9967 15.2886 26.2967L15.6152 23.66L13.5386 22.0267L11.0186 20.0667L12.6519 17.2434L15.6152 18.4334L18.0419 19.4134L20.1419 17.8267C21.1452 17.08 22.1019 16.52 23.0586 16.1234L25.5319 15.12L25.9052 12.4834L26.3719 9.33335H29.6152L30.4319 15.12L32.9052 16.1234C33.9086 16.5434 34.8419 17.08 35.7752 17.78L37.8986 19.4134L40.3719 18.41L43.3352 17.22L44.9686 20.0434L42.4719 22.0267L40.3952 23.66L40.7219 26.2967ZM28.0052 18.6667C22.8486 18.6667 18.6719 22.8434 18.6719 28C18.6719 33.1567 22.8486 37.3334 28.0052 37.3334C33.1619 37.3334 37.3386 33.1567 37.3386 28C37.3386 22.8434 33.1619 18.6667 28.0052 18.6667ZM28.0052 32.6667C25.4386 32.6667 23.3386 30.5667 23.3386 28C23.3386 25.4334 25.4386 23.3334 28.0052 23.3334C30.5719 23.3334 32.6719 25.4334 32.6719 28C32.6719 30.5667 30.5719 32.6667 28.0052 32.6667Z" fill="#3F0F9E"/>
</svg>
