<?xml version="1.0" standalone="no"?>
<!DOCTYPE svg PUBLIC "-//W3C//DTD SVG 20010904//EN"
 "http://www.w3.org/TR/2001/REC-SVG-20010904/DTD/svg10.dtd">
<svg version="1.0" xmlns="http://www.w3.org/2000/svg"
 width="1672.000000pt" height="1672.000000pt" viewBox="0 0 1672.000000 1672.000000"
 preserveAspectRatio="xMidYMid meet">

<g transform="translate(0.000000,1672.000000) scale(0.100000,-0.100000)"
fill="#000000" stroke="none">
<path d="M9970 16159 c-602 -213 -968 -310 -1256 -334 -81 -7 -123 -21 -96
-32 17 -7 15 -42 -4 -50 -9 -3 -26 5 -43 21 -36 35 -90 37 -92 4 -1 -17 -3
-18 -6 -6 -4 17 -40 34 -50 24 -3 -3 -17 1 -32 8 -14 7 -57 17 -96 20 -109 11
-367 54 -489 82 -195 44 -354 94 -621 192 -336 124 -334 123 -520 29 -204
-103 -480 -217 -875 -360 -213 -77 -276 -97 -419 -128 -101 -22 -291 -161
-414 -304 -278 -320 -415 -691 -546 -1471 -77 -456 -161 -1061 -206 -1484 -9
-80 -31 -278 -50 -440 -19 -162 -53 -470 -75 -685 -89 -868 -178 -1706 -245
-2310 -19 -170 -51 -463 -70 -650 -19 -187 -48 -452 -65 -590 -16 -137 -61
-536 -100 -885 -65 -587 -126 -1112 -150 -1305 -6 -44 -19 -163 -30 -265 -39
-364 -60 -546 -74 -640 -8 -52 -18 -138 -22 -191 l-7 -96 31 -22 c119 -84 343
-136 645 -148 116 -4 160 -10 164 -19 3 -7 0 -44 -7 -81 -23 -142 -69 -453
-86 -578 -3 -27 -7 -53 -8 -56 0 -4 4 -9 9 -10 6 -2 10 9 10 25 1 16 6 31 13
34 7 2 10 13 6 28 -4 16 -1 26 9 30 13 5 14 9 5 24 -9 14 -9 22 1 34 10 12 11
19 2 29 -6 8 -8 16 -5 20 5 5 11 41 19 127 2 25 7 59 10 75 4 17 7 38 7 47 -1
9 8 20 19 23 10 4 19 11 19 17 0 5 -6 8 -13 5 -8 -3 -14 1 -14 9 0 8 10 14 21
15 21 0 21 1 1 9 -11 5 -14 9 -7 9 13 1 13 22 -1 32 -4 3 2 15 13 27 19 20 18
26 -2 23 -4 0 -4 9 -1 22 3 12 5 32 4 45 -1 21 3 22 65 22 66 0 66 0 60 -26
-8 -29 -45 -206 -52 -244 -2 -14 -11 -56 -19 -95 -8 -38 -17 -86 -20 -105 -3
-19 -15 -80 -25 -135 -11 -55 -22 -116 -25 -135 -3 -19 -11 -53 -16 -74 -6
-22 -13 -62 -15 -90 -3 -27 -10 -56 -15 -63 -6 -6 -8 -16 -5 -21 2 -4 0 -26
-5 -48 -5 -21 -12 -48 -14 -59 -6 -22 -24 -134 -30 -177 -2 -15 -6 -31 -9 -36
-2 -4 -7 -26 -10 -48 -3 -21 -10 -63 -15 -93 -6 -29 -11 -56 -11 -58 0 -2 -5
-1 -11 2 -6 4 -8 13 -5 21 3 8 1 14 -3 14 -5 0 -11 -6 -14 -12 -3 -7 -4 -3 -4
9 1 12 9 24 20 27 10 2 16 9 13 14 -3 6 -2 22 3 35 7 17 7 27 0 29 -7 2 -6 14
1 33 22 56 27 185 7 197 -9 5 -8 8 3 8 13 0 16 15 16 77 1 92 13 261 20 286 3
9 1 17 -4 17 -10 0 -16 -33 -102 -645 -32 -231 -79 -549 -104 -707 -55 -346
-56 -365 -19 -379 15 -6 41 -16 58 -24 16 -7 73 -28 125 -45 136 -46 127 -37
120 -117 -3 -37 -5 -89 -5 -114 1 -46 21 -109 34 -109 4 0 13 36 20 80 6 43
18 102 25 129 9 36 10 52 2 55 -6 2 -2 5 9 5 11 0 88 -20 170 -45 83 -25 175
-52 205 -61 90 -24 273 -84 300 -98 60 -32 198 -76 300 -95 104 -20 396 -53
575 -65 44 -3 114 -10 155 -15 41 -6 176 -21 300 -35 124 -14 281 -32 350 -40
74 -9 303 -19 560 -25 496 -12 763 -25 792 -41 24 -13 1166 -10 1183 2 10 8
176 13 680 24 294 6 500 19 710 45 158 20 654 73 790 85 215 19 603 89 727
131 39 13 73 24 74 24 1 0 5 -27 9 -60 10 -85 21 -82 17 5 l-4 74 114 34 c87
27 421 122 539 154 17 5 25 -31 49 -227 5 -42 9 -50 15 -35 13 31 37 55 48 48
5 -3 7 -1 4 4 -4 6 2 18 13 28 11 10 18 29 18 47 -1 16 4 33 11 37 8 5 11 31
9 76 l-3 69 49 14 c46 13 51 13 63 -4 16 -22 12 -39 -10 -39 -8 0 -19 -4 -23
-8 -4 -4 5 -7 20 -7 15 0 25 -4 22 -8 -2 -4 -1 -14 4 -22 7 -11 1 -18 -22 -27
-16 -7 -34 -10 -39 -7 -5 3 -6 -2 -3 -10 3 -9 13 -16 21 -16 8 0 12 4 9 9 -3
5 1 12 9 15 20 7 32 -23 14 -35 -10 -6 -10 -9 -1 -9 6 0 12 -11 12 -25 0 -14
5 -25 10 -25 6 0 10 -5 10 -11 0 -6 -9 -8 -22 -4 -22 6 -22 6 2 -14 21 -16 22
-21 9 -26 -18 -7 -14 -65 5 -65 8 0 11 -12 10 -33 -2 -17 -1 -24 2 -15 3 10
10 18 15 18 5 0 7 23 4 52 -7 70 -25 219 -35 288 -4 30 -7 55 -6 56 0 0 31 15
69 32 82 38 79 20 36 305 -17 111 -43 292 -59 402 -31 210 -51 343 -95 615
-15 91 -29 186 -32 212 -3 27 -10 48 -16 48 -6 0 -7 -15 -3 -38 4 -20 12 -66
17 -102 6 -36 12 -76 14 -90 2 -14 6 -45 9 -70 3 -25 6 -45 7 -45 1 0 3 -10 4
-23 1 -14 -3 -22 -12 -22 -9 0 -13 6 -9 15 3 8 1 15 -5 15 -6 0 -9 6 -6 14 3
8 0 22 -7 32 -7 9 -11 26 -8 36 2 10 -1 18 -7 18 -7 0 -9 4 -6 10 3 5 -1 31
-10 57 -24 77 -119 524 -128 608 -2 17 -6 36 -10 41 -3 6 -10 35 -15 65 -11
60 -66 306 -81 356 -7 23 -6 35 3 42 13 11 77 8 109 -4 9 -4 17 -3 17 2 0 6
62 13 138 17 261 13 476 54 606 115 46 21 89 48 95 59 7 14 8 45 1 99 -5 43
-14 125 -20 183 -13 127 -139 1238 -175 1545 -14 121 -41 362 -60 535 -19 173
-50 455 -69 625 -19 171 -44 400 -56 510 -11 110 -36 342 -55 515 -19 173 -46
423 -60 555 -13 132 -47 449 -75 705 -54 498 -100 934 -155 1470 -19 184 -48
452 -65 595 -17 143 -35 303 -40 355 -37 342 -106 887 -186 1455 -58 414 -123
787 -175 993 -103 414 -275 736 -517 964 -123 115 -291 218 -357 218 -40 0
-138 29 -405 122 -326 112 -566 213 -919 387 -68 34 -135 61 -150 61 -14 0
-91 -23 -171 -51z m-3240 -69 c12 -8 11 -10 -7 -10 -13 0 -23 5 -23 10 0 13
11 13 30 0z m3548 -16 c12 -4 22 -13 22 -21 0 -8 10 -23 23 -33 12 -10 18 -22
14 -27 -5 -4 -15 1 -22 11 -8 10 -33 27 -55 37 -56 25 -43 49 18 33z m-3613
-33 c-3 -6 -11 -11 -16 -11 -5 0 -4 6 3 14 14 16 24 13 13 -3z m95 -26 c0 -17
-16 -20 -25 -5 -3 6 -16 10 -28 10 -21 1 -21 1 -3 15 22 16 56 4 56 -20z
m3535 -41 c0 -11 -8 -20 -20 -22 -11 -3 -24 -10 -28 -18 -4 -8 -18 -13 -30
-13 -17 1 -18 2 -4 6 21 6 21 12 0 35 -9 10 -11 18 -5 18 6 0 12 -6 15 -12 2
-7 8 -9 13 -5 5 5 1 14 -8 21 -17 12 -16 14 5 24 27 12 62 -6 62 -34z m-3580
26 c3 -5 -3 -10 -14 -10 -11 0 -23 5 -26 10 -3 6 3 10 14 10 11 0 23 -4 26
-10z m-5 -29 c27 -5 35 -11 36 -29 1 -20 -3 -23 -30 -20 -23 2 -32 8 -34 26
-4 24 -17 29 -28 11 -4 -8 -9 -7 -15 2 -15 23 -10 32 14 24 12 -4 38 -10 57
-14z m3592 -51 c0 -5 2 -28 3 -50 2 -44 -17 -54 -35 -20 -6 11 -20 20 -31 20
-14 0 -19 5 -17 18 3 11 12 16 30 15 20 -1 25 2 21 13 -3 8 1 14 11 14 9 0 17
-4 18 -10z m-3595 -26 c53 -17 73 -37 73 -71 0 -28 -20 -30 -51 -3 -20 16 -21
19 -6 20 9 0 17 -4 17 -10 0 -5 5 -10 11 -10 8 0 8 4 -1 15 -9 11 -24 13 -58
8 -52 -7 -52 11 1 25 17 4 27 11 21 15 -6 3 -22 0 -37 -8 -15 -8 -27 -13 -28
-12 -7 18 -7 47 1 47 5 0 31 -7 57 -16z m3548 -75 c0 -29 -41 -41 -51 -15 -3
9 -10 13 -15 10 -5 -3 -9 -1 -9 5 0 5 5 13 11 16 6 4 8 13 5 21 -4 12 0 12 27
1 24 -10 32 -20 32 -38z m-3535 -29 c-9 -6 -6 -10 9 -15 13 -4 25 -4 28 -1 10
10 33 -15 33 -35 0 -22 -1 -22 -37 -8 -74 31 -91 40 -96 53 -8 20 -2 23 39 18
22 -3 31 -7 24 -12z m3583 14 c3 -4 1 -16 -5 -27 -6 -11 -12 -34 -13 -51 -2
-17 -3 -36 -4 -42 -2 -22 -101 3 -101 26 0 5 8 14 18 19 16 10 16 10 0 11 -23
0 -23 17 0 29 11 6 24 6 35 0 22 -13 37 -4 37 22 0 18 20 26 33 13z m-3588
-73 c3 -5 1 -12 -4 -15 -12 -8 -41 3 -41 15 0 12 37 12 45 0z m1762 -13 c-3
-8 -6 -5 -6 6 -1 11 2 17 5 13 3 -3 4 -12 1 -19z m-1692 -18 c11 -13 14 -20 6
-20 -18 0 -51 19 -51 30 0 17 26 11 45 -10z m-52 -11 l21 -12 -22 -8 c-31 -12
-56 -1 -41 17 14 17 15 17 42 3z m3452 -25 c-19 -15 -18 -16 13 -9 18 4 32 3
32 -3 0 -12 -56 -21 -71 -11 -19 11 -2 39 23 39 23 -1 23 -1 3 -16z m-3387
-15 c14 -22 1 -51 -15 -35 -4 4 -1 11 7 16 12 8 10 10 -7 10 -14 0 -23 6 -23
15 0 22 23 18 38 -6z m-40 -25 c11 -12 9 -16 -14 -24 -21 -8 -29 -8 -35 2 -6
9 -1 15 14 20 20 5 19 6 -6 7 -17 1 -26 5 -22 11 8 13 43 3 63 -16z m3512 -4
c0 -24 -16 -34 -24 -15 -7 19 3 47 15 39 5 -3 9 -14 9 -24z m-1775 -13 c37
-52 6 -87 -60 -69 -25 7 -30 14 -30 38 0 24 5 30 30 35 17 4 22 7 12 8 -10 0
-16 5 -13 10 9 14 45 1 61 -22z m1734 5 c14 -26 24 -92 15 -92 -15 1 -44 27
-37 33 3 4 -6 7 -21 7 -33 0 -44 24 -23 48 21 23 55 25 66 4z m-3408 -45 c7
-27 6 -29 -19 -22 -33 8 -45 25 -30 43 17 20 41 10 49 -21z m-54 -27 c24 -16
48 -30 53 -30 5 0 14 -9 20 -21 13 -24 3 -82 -13 -76 -18 6 -20 27 -2 27 9 0
14 4 11 9 -3 5 -25 6 -49 4 -36 -4 -44 -2 -44 12 0 13 6 16 29 11 15 -3 28 -1
28 4 0 6 -7 10 -15 10 -10 0 -15 7 -13 18 2 13 -4 17 -27 17 -23 0 -31 5 -33
23 -4 29 1 28 55 -8z m3441 -35 c12 -19 22 -41 22 -49 0 -25 -18 -28 -30 -6
-6 12 -19 20 -28 18 -9 -1 -23 1 -31 6 -8 5 -16 3 -22 -5 -6 -10 -9 -8 -9 9 0
12 4 22 9 22 5 0 11 9 14 20 9 33 49 25 75 -15z m-3 -88 c8 -24 7 -44 -2 -67
-10 -23 -10 -34 -1 -46 4 -6 1 -19 -7 -30 -14 -18 -14 -18 -15 3 0 29 -16 38
-23 13 -5 -21 -35 -25 -71 -11 -19 7 -19 9 7 31 27 23 28 44 2 34 -10 -4 -12
0 -8 16 4 16 11 20 24 16 11 -3 28 -9 39 -12 12 -4 20 -2 20 5 0 6 -11 11 -25
11 -20 0 -25 5 -25 24 0 13 -5 26 -11 28 -6 2 12 5 39 6 44 2 51 -1 57 -21z
m-3338 -36 c7 -9 13 -27 13 -40 0 -23 -1 -23 -25 -7 -14 10 -34 15 -43 12 -9
-3 -28 1 -42 9 -14 8 -20 14 -13 15 7 0 10 7 7 15 -9 22 86 18 103 -4z m11
-83 c5 -7 12 -22 16 -34 5 -18 2 -21 -24 -21 -18 0 -30 6 -30 14 0 7 -5 13
-11 13 -5 0 -7 5 -3 11 5 8 1 8 -14 0 -11 -6 -23 -11 -26 -11 -12 0 -6 28 7
33 24 10 75 7 85 -5z m-20 -74 c1 -1 -6 -4 -18 -7 -11 -3 -18 -1 -14 4 3 5 -7
9 -23 9 -27 1 -27 1 -9 15 17 13 22 13 40 -2 12 -10 22 -18 24 -19z m3319 -3
c13 -31 13 -33 -4 -26 -10 4 -29 9 -43 12 -25 4 -24 4 6 -21 25 -22 29 -31 26
-61 -4 -34 -22 -50 -22 -20 0 8 -18 23 -40 32 -45 20 -51 43 -17 66 l22 16
-22 7 c-42 12 -25 29 29 29 49 0 52 -2 65 -34z m-3263 -9 c3 -5 8 -23 11 -41
6 -32 5 -33 -27 -26 -30 5 -31 5 -15 -9 12 -9 15 -16 7 -21 -15 -9 -43 2 -35
14 3 5 -4 11 -15 13 -23 3 -28 23 -6 23 19 0 34 15 15 15 -12 0 -11 2 1 10 10
6 22 4 37 -6 13 -8 23 -10 23 -5 0 5 -4 13 -10 16 -5 3 -10 10 -10 16 0 11 17
12 24 1z m34 -104 c19 -19 14 -25 -24 -32 -44 -9 -43 -35 3 -50 46 -16 70 -42
58 -62 -15 -24 -94 -49 -109 -34 -8 8 -7 13 2 19 11 6 10 11 -3 25 -13 13 -14
16 -2 16 8 0 20 -7 27 -15 10 -12 16 -13 26 -4 18 15 9 29 -18 29 -24 0 -58
27 -58 46 0 7 8 15 18 18 10 3 7 4 -8 3 -16 -1 -26 4 -28 16 -4 18 18 23 34 7
14 -14 56 0 50 16 -7 17 16 18 32 2z m3157 -7 c3 -11 12 -22 20 -25 8 -3 15
-12 15 -21 0 -16 -15 -20 -24 -6 -4 5 -28 12 -56 16 l-49 7 16 24 c19 30 69
33 78 5z m-3148 -50 c11 -17 10 -18 -13 -7 -26 12 -32 26 -11 26 7 0 17 -8 24
-19z m3133 -21 c11 -11 25 -20 30 -20 6 0 10 -4 10 -10 0 -5 -5 -10 -10 -10
-6 0 -8 -11 -4 -25 3 -14 3 -25 0 -25 -12 0 -91 52 -104 68 -10 14 -8 18 15
28 38 17 40 17 63 -6z m-15 -95 l23 -24 -41 -9 c-48 -10 -77 0 -77 27 0 25 9
31 43 31 19 0 38 -9 52 -25z m-3127 -38 c2 -12 -1 -15 -12 -11 -19 7 -22 38
-3 32 6 -3 13 -12 15 -21z m63 -13 c12 -34 8 -38 -25 -23 -29 14 -31 20 -14
37 18 18 27 15 39 -14z m-72 -15 c21 -7 31 -18 31 -31 0 -17 5 -19 30 -13 25
6 29 4 24 -10 -4 -10 -13 -14 -23 -10 -36 14 -71 17 -71 6 0 -6 -5 -11 -11
-11 -6 0 -8 8 -4 19 3 11 -1 25 -10 34 -28 29 -18 34 34 16z m3031 1 c0 -5 -4
-10 -10 -10 -5 0 -10 5 -10 10 0 6 5 10 10 10 6 0 10 -4 10 -10z m114 -1 c-3
-6 -6 -28 -6 -50 1 -29 -3 -39 -15 -39 -9 0 -13 6 -9 15 4 10 -1 15 -15 15
-49 0 -73 39 -38 61 21 13 92 12 83 -2z m-55 -84 c8 -8 10 -21 6 -34 -5 -17
-14 -21 -50 -21 -38 0 -43 2 -38 20 3 11 9 20 14 20 5 0 9 9 9 21 0 16 4 19
23 14 12 -4 28 -13 36 -20z m-2984 -17 c22 -20 24 -25 13 -39 -10 -13 -20 -14
-46 -7 -19 5 -30 13 -26 19 3 6 15 9 25 6 11 -3 19 -1 19 4 0 5 -16 9 -35 7
-29 -2 -34 -5 -29 -20 8 -25 -8 -23 -25 4 -12 19 -11 23 5 35 27 20 70 16 99
-9z m3009 -47 c8 -12 -5 -101 -13 -101 -4 0 -12 12 -18 28 -11 27 -11 27 -10
2 1 -15 -3 -25 -10 -24 -7 1 -27 2 -44 3 -24 1 -30 5 -25 17 3 8 2 24 -4 34
-9 16 -6 17 26 10 27 -6 34 -6 25 3 -19 19 -12 30 13 23 14 -3 28 -2 31 4 8
12 22 13 29 1z m-2993 -58 c15 -15 29 -36 29 -45 0 -23 -26 -12 -33 13 -5 18
-9 19 -27 9 -42 -22 -114 16 -88 47 19 23 84 10 119 -24z m2950 -78 c21 -36
23 -49 7 -39 -7 5 -25 7 -40 6 -17 -2 -37 6 -51 19 -22 20 -22 20 -2 35 30 22
66 13 86 -21z m-3041 16 c0 -6 -4 -13 -10 -16 -5 -3 -10 1 -10 9 0 9 5 16 10
16 6 0 10 -4 10 -9z m39 -3 c11 -10 13 -10 7 0 -11 18 15 15 52 -8 30 -18 47
-58 20 -47 -49 20 -51 20 -46 6 3 -8 -2 -19 -11 -26 -13 -9 -9 -10 21 -4 23 6
40 5 47 -2 18 -18 12 -37 -11 -38 -20 -1 -18 -3 9 -15 32 -14 64 -54 44 -54
-7 0 -7 -9 -1 -25 8 -20 6 -25 -6 -25 -12 0 -15 -6 -11 -21 4 -14 2 -19 -8
-16 -7 3 -18 0 -25 -6 -9 -9 -15 -8 -24 7 -6 10 -19 26 -28 34 -15 14 -15 17
7 34 28 22 39 23 58 4 12 -13 14 -10 15 16 0 22 -3 28 -14 24 -9 -3 -12 -1 -9
4 4 6 -7 10 -24 10 -17 0 -31 4 -31 10 0 5 -6 7 -14 4 -12 -5 -12 -9 -1 -31 8
-15 12 -30 9 -35 -8 -13 -30 -9 -44 7 -7 8 -8 15 -3 15 11 0 11 3 16 78 3 49
1 52 -20 52 -26 0 -30 12 -8 30 8 7 12 16 9 21 -8 13 10 11 25 -3z m2924 -66
c10 -4 24 -19 31 -33 l13 -26 -46 5 c-25 2 -47 5 -48 6 -1 0 1 13 4 29 5 27
14 31 46 19z m87 -7 c13 -16 10 -47 -6 -52 -10 -3 -34 37 -34 57 0 15 26 12
40 -5z m-25 -85 c6 -11 -24 -70 -36 -70 -14 0 -59 62 -53 72 17 27 72 26 89
-2z m-2681 -55 c128 -43 381 -142 511 -198 44 -19 146 -62 227 -96 81 -33 216
-92 301 -131 84 -38 157 -70 161 -70 4 0 153 60 329 134 529 221 907 368 981
382 34 6 38 5 33 -12 -4 -11 -8 -39 -11 -64 -2 -25 -8 -75 -11 -112 -4 -37
-12 -73 -19 -81 -6 -7 -218 -96 -471 -196 -253 -101 -464 -186 -468 -190 -4
-5 83 -44 195 -89 339 -136 560 -228 617 -256 l54 -28 -7 -81 c-3 -45 -6 -108
-6 -139 0 -41 -4 -58 -13 -58 -7 0 -89 34 -183 76 -93 41 -299 127 -458 191
-159 63 -343 139 -410 168 -156 69 -165 71 -212 47 -22 -11 -140 -61 -264
-112 -124 -51 -337 -140 -475 -198 -137 -57 -284 -118 -326 -134 -71 -28 -76
-31 -71 -55 3 -18 -1 -29 -13 -35 -14 -8 -15 -12 -4 -19 27 -17 42 -10 37 16
-3 14 -1 25 5 25 5 0 188 -85 406 -189 522 -249 762 -361 778 -361 7 0 72 29
145 64 73 35 228 107 343 161 116 53 310 144 432 201 122 57 229 104 238 104
13 0 16 -11 14 -62 -1 -35 -7 -80 -14 -100 -19 -56 4 -69 30 -17 11 19 22 29
31 25 10 -4 14 3 14 27 0 43 10 55 49 63 l32 7 -5 -58 c-2 -35 0 -65 7 -76 13
-21 2 -38 -14 -22 -6 6 -17 9 -24 7 -8 -3 -12 2 -12 12 1 10 -6 20 -16 22 -16
3 -18 -2 -13 -42 4 -44 4 -46 -19 -40 -12 3 -26 1 -29 -5 -4 -5 -12 -8 -19 -5
-7 2 -17 -6 -22 -18 -7 -15 -50 -40 -140 -81 -305 -137 -661 -301 -668 -307
-4 -4 7 -13 25 -20 84 -34 523 -226 611 -267 70 -34 97 -51 97 -65 0 -10 4
-18 9 -18 5 0 7 -46 5 -102 -2 -57 -4 -111 -4 -120 0 -11 -8 -18 -20 -18 -17
0 -249 96 -520 215 -321 141 -422 186 -470 208 -30 14 -62 27 -70 29 -17 3
-105 -33 -310 -127 -245 -113 -337 -154 -546 -245 -188 -82 -202 -86 -212 -69
-16 25 -15 28 8 22 11 -3 20 0 20 6 0 11 -17 15 -56 12 -11 -1 -27 5 -34 13
-7 9 -17 16 -22 16 -15 0 -39 28 -36 42 2 7 10 16 18 19 8 3 15 19 15 35 0 23
6 30 32 37 18 5 40 7 49 3 16 -6 16 -8 -2 -21 -17 -13 -17 -14 -1 -15 9 0 17
3 18 8 0 4 2 19 4 34 2 15 -1 31 -7 34 -7 4 -8 2 -4 -4 12 -19 -9 -14 -28 7
-10 11 -13 21 -7 25 5 4 12 2 16 -4 3 -5 15 -10 26 -10 15 0 19 -7 20 -32 0
-31 1 -32 11 -10 6 12 16 22 21 22 6 0 3 6 -8 13 -16 13 -3 21 136 89 183 90
393 191 469 225 l55 25 -105 52 c-58 28 -199 97 -315 153 -242 117 -371 187
-368 200 3 13 -30 12 -39 -1 -13 -18 -9 -36 7 -36 18 0 20 -21 4 -37 -8 -8 -7
-20 5 -44 19 -38 20 -47 4 -31 -7 7 -23 12 -38 12 -14 0 -33 7 -43 14 -18 14
-18 14 0 19 15 4 15 5 -3 6 -35 2 -69 61 -44 76 6 3 10 1 10 -5 0 -6 4 -9 10
-5 5 3 7 12 4 19 -3 8 2 16 13 19 13 3 12 5 -6 6 -17 1 -22 4 -15 11 8 8 20 7
39 0 30 -12 96 -3 76 10 -7 4 -11 13 -9 21 2 9 -8 15 -29 17 -18 2 -33 -1 -33
-6 0 -17 13 -22 28 -9 13 10 14 9 10 -3 -8 -26 -35 -22 -70 9 -30 27 -31 30
-12 31 23 0 40 25 24 35 -4 3 -10 -1 -13 -7 -2 -7 -7 -10 -11 -7 -3 3 -4 14 0
23 7 18 54 22 54 4 0 -6 9 -1 20 12 21 24 19 43 -2 22 -20 -20 -32 -13 -14 7
16 17 15 19 -15 25 -44 8 -69 33 -69 67 0 21 6 29 29 37 16 6 32 7 36 4 3 -4
3 1 -1 11 -4 11 -1 17 9 17 29 0 30 33 0 55 -15 11 -36 30 -47 42 -11 13 -28
23 -38 23 -24 0 -23 21 2 27 11 3 20 9 20 14 0 13 -24 11 -38 -3 -14 -14 -27
-4 -19 16 4 10 16 13 45 9 34 -5 42 -2 51 16 12 22 7 41 -10 41 -5 0 -9 -7 -9
-15 0 -17 -43 -31 -61 -20 -8 6 -7 10 5 17 22 13 20 22 -9 38 -23 12 -23 14
-7 26 24 18 47 17 68 -3 26 -27 52 -24 124 12 36 18 137 63 225 100 88 37 180
76 205 87 71 32 230 98 285 118 28 10 49 22 49 27 -1 4 -35 22 -75 39 -41 17
-139 61 -219 96 -80 36 -260 114 -400 174 -140 59 -262 113 -271 121 -8 7 -22
13 -30 13 -10 -1 -8 -5 5 -15 14 -11 17 -18 9 -26 -7 -7 -19 -2 -41 15 -16 14
-38 26 -48 26 -9 0 -15 3 -11 6 3 4 -4 15 -16 24 l-22 18 28 -5 c15 -3 34 0
41 7 18 14 56 -3 56 -25 0 -21 28 -19 33 3 3 11 5 9 6 -8 2 -37 34 -55 72 -38
16 7 29 21 29 30 0 10 7 18 15 18 8 0 14 3 14 8 -3 20 2 32 15 32 9 0 12 -8 9
-24 -6 -28 14 -69 28 -60 7 4 7 10 0 17 -17 17 -13 45 7 56 16 10 16 10 -2 11
-11 0 -16 5 -13 14 7 17 -12 36 -36 36 -11 0 -16 -5 -12 -12 4 -7 -5 -1 -19
15 -14 15 -32 27 -41 27 -8 0 -15 7 -15 15 0 8 -5 15 -11 15 -13 0 -39 25 -39
38 0 11 52 1 124 -23z m2581 15 c3 -5 1 -10 -4 -10 -6 0 -11 5 -11 10 0 6 2
10 4 10 3 0 8 -4 11 -10z m114 -42 c0 -13 -4 -32 -9 -43 -7 -19 -9 -18 -19 8
-14 36 -14 44 2 50 23 10 27 7 26 -15z m-71 0 c7 -7 12 -24 12 -38 0 -18 8
-31 23 -38 12 -6 16 -11 9 -11 -9 -1 -10 -12 -6 -41 8 -47 0 -50 -57 -17 -30
16 -38 27 -35 41 3 11 0 26 -6 33 -8 10 -6 17 8 28 18 13 18 14 -6 8 l-25 -5
25 25 c28 29 41 32 58 15z m-2778 -62 c0 -23 -33 -27 -91 -12 l-54 14 60 4
c33 2 66 5 73 6 6 1 12 -4 12 -12z m-120 -26 c0 -5 -4 -10 -10 -10 -5 0 -10 5
-10 10 0 6 5 10 10 10 6 0 10 -4 10 -10z m117 -16 c-3 -3 -12 -4 -19 -1 -8 3
-5 6 6 6 11 1 17 -2 13 -5z m2733 -44 c0 -5 -4 -10 -10 -10 -5 0 -10 5 -10 10
0 6 5 10 10 10 6 0 10 -4 10 -10z m32 -44 c-2 -9 4 -23 12 -31 11 -11 12 -23
6 -44 -10 -36 -2 -47 17 -23 13 16 14 16 11 -3 -2 -15 -12 -21 -38 -23 -19 -2
-40 -8 -47 -13 -7 -7 -13 -6 -18 1 -3 5 1 10 10 10 9 0 14 4 11 9 -4 5 0 12 6
15 7 4 -4 4 -24 2 -31 -4 -38 -2 -38 13 0 10 9 26 20 36 11 10 20 24 20 32 0
7 9 13 20 13 14 0 18 5 13 16 -4 12 -2 15 8 12 8 -3 13 -13 11 -22z m58 -5 c0
-27 -15 -34 -31 -15 -10 13 -10 17 2 25 22 13 29 11 29 -10z m-2864 -30 c5 -5
20 -11 34 -13 17 -2 25 -10 26 -23 1 -12 6 -31 13 -42 14 -27 2 -36 -48 -40
-27 -2 -40 4 -62 30 -31 35 -34 48 -19 78 11 20 39 25 56 10z m2848 -119 c-1
-7 -2 -21 -2 -32 -1 -11 -9 -20 -17 -20 -8 0 -15 -4 -15 -9 0 -5 -3 -16 -6
-25 -4 -11 -1 -16 10 -16 12 0 16 -10 16 -46 0 -40 -2 -45 -15 -34 -9 7 -13
21 -9 35 7 30 -12 41 -26 16 -7 -14 -7 -22 0 -26 6 -4 9 -12 8 -18 -2 -7 8
-23 20 -35 16 -16 22 -31 18 -45 -3 -12 -6 -31 -6 -42 -1 -17 -3 -17 -12 5
-11 25 -11 25 -15 3 -5 -27 -14 -28 -53 -8 -32 17 -41 52 -15 61 22 9 19 19
-10 34 -28 15 -32 35 -11 47 7 4 20 22 29 39 15 28 14 31 -5 43 -20 12 -20 13
13 47 39 41 59 43 59 8 0 -14 4 -23 10 -19 6 3 10 18 10 31 0 16 5 24 13 22 6
-3 12 -10 11 -16z m-114 -2 c0 -5 -4 -10 -10 -10 -5 0 -10 5 -10 10 0 6 5 10
10 10 6 0 10 -4 10 -10z m-2664 -19 c-3 -4 -1 -22 4 -40 8 -30 7 -31 -16 -25
-26 7 -34 -12 -13 -33 14 -14 -22 -27 -51 -18 -28 9 -20 48 11 56 20 5 21 7 7
13 -24 11 -15 42 11 39 11 -2 21 2 21 7 0 6 7 10 16 10 8 0 13 -4 10 -9z
m2654 -65 c0 -3 -4 -8 -10 -11 -5 -3 -10 -1 -10 4 0 6 5 11 10 11 6 0 10 -2
10 -4z m-2620 -36 c0 -5 -4 -10 -10 -10 -5 0 -10 5 -10 10 0 6 5 10 10 10 6 0
10 -4 10 -10z m-1 -57 c-1 -21 3 -48 9 -60 18 -32 15 -48 -13 -82 -19 -22 -24
-36 -19 -55 7 -31 15 -37 32 -27 9 6 7 14 -8 34 -12 15 -17 27 -12 27 6 0 18
3 28 7 14 5 16 2 11 -17 -3 -13 -2 -29 4 -36 7 -8 7 -14 0 -19 -7 -4 -5 -15 5
-30 9 -14 14 -31 11 -39 -7 -18 -72 -30 -95 -17 -9 6 -12 11 -6 11 7 0 14 10
18 23 5 18 8 19 15 7 6 -8 12 -12 15 -9 3 3 -2 16 -11 28 -12 18 -18 20 -24
10 -6 -11 -12 -11 -34 1 -15 8 -21 16 -14 20 6 4 10 10 10 14 -5 36 0 47 19
41 32 -10 24 22 -10 40 -21 11 -30 23 -30 40 0 27 9 32 28 13 9 -9 12 -9 12 0
0 16 11 15 34 -3 16 -12 17 -17 6 -30 -10 -12 -10 -15 4 -15 19 0 22 40 6 71
-11 20 -40 27 -40 9 0 -5 -7 -10 -16 -10 -8 0 -13 4 -10 8 3 5 -4 16 -15 26
-33 28 -4 50 69 55 21 1 23 -3 21 -36z m2601 -43 c0 -5 -2 -10 -4 -10 -3 0 -8
5 -11 10 -3 6 -1 10 4 10 6 0 11 -4 11 -10z m47 -112 c17 -19 17 -20 -2 -34
-21 -16 -49 -19 -41 -5 4 5 -3 7 -14 4 -14 -4 -20 0 -20 11 0 9 5 16 11 16 8
0 9 4 0 13 -26 32 37 27 66 -5z m61 -40 c-3 -22 -5 -21 -21 9 -16 30 -16 32 1
35 19 4 25 -10 20 -44z m-87 -27 c8 5 24 9 36 9 28 0 36 -27 28 -90 -3 -25 -6
-58 -6 -74 0 -25 -2 -27 -24 -22 -18 5 -24 2 -23 -11 0 -10 -3 -27 -7 -38 -6
-18 -4 -17 14 3 11 13 25 21 31 17 15 -9 9 -124 -8 -155 -13 -24 -13 -23 -10
18 3 35 1 42 -15 42 -10 0 -28 5 -40 11 -19 10 -18 7 6 -18 15 -16 27 -39 27
-52 0 -20 -3 -21 -37 -15 -21 4 -40 8 -42 11 -9 7 -9 33 0 39 5 3 9 16 9 30 0
15 6 24 15 24 8 0 15 8 15 17 0 9 8 25 18 37 17 19 17 19 -8 3 -27 -19 -50
-22 -50 -7 0 6 7 10 16 10 13 0 14 3 4 15 -7 9 -9 23 -4 37 4 13 7 26 6 31 -3
12 11 8 46 -13 43 -26 41 -11 -4 29 -46 42 -33 64 20 33 20 -12 38 -17 40 -13
7 10 -73 53 -85 45 -5 -3 -9 -1 -9 5 0 5 6 12 13 14 6 3 2 6 -11 6 -20 1 -21
3 -11 23 10 19 13 20 23 6 8 -11 17 -14 27 -7z m-2601 -135 c0 -9 7 -12 19 -9
11 3 21 -2 25 -12 5 -14 2 -16 -19 -11 -14 4 -40 0 -59 -8 -31 -13 -36 -13
-50 3 -9 10 -16 24 -16 32 1 10 3 9 11 -3 11 -20 44 -24 55 -7 3 6 0 15 -7 20
-10 6 -6 9 14 9 17 0 27 -5 27 -14z m50 -67 c0 -6 -4 -7 -10 -4 -5 3 -10 11
-10 16 0 6 5 7 10 4 6 -3 10 -11 10 -16z m-100 -93 c0 -11 -19 -15 -25 -6 -3
5 1 10 9 10 9 0 16 -2 16 -4z m2640 -117 c0 -12 -10 -21 -26 -25 -34 -9 -48 6
-29 33 18 25 55 20 55 -8z m44 -51 c-4 -40 -10 -77 -15 -82 -6 -6 -9 -6 -9 1
0 6 -10 13 -23 17 -13 3 -29 18 -37 33 -12 26 -13 27 -21 8 -7 -18 -8 -17 -8
7 -1 19 4 27 17 27 62 1 103 26 86 52 -3 5 0 9 5 9 8 0 9 -24 5 -72z m-2682
53 c2 -4 13 -12 26 -15 16 -6 22 -3 22 9 0 9 5 13 10 10 6 -4 8 -10 5 -15 -3
-4 4 -10 15 -13 20 -5 37 -33 27 -44 -4 -3 -27 0 -52 7 -33 9 -49 20 -59 41
-8 16 -11 29 -6 29 5 0 10 -4 12 -9z m26 -102 c1 -33 -20 -36 -26 -4 -3 13 10
33 24 35 1 0 1 -14 2 -31z m2602 -82 c0 -8 -14 -18 -32 -23 -24 -7 -35 -18
-42 -42 -10 -37 -21 -41 -29 -11 -3 12 0 22 9 26 10 4 11 10 4 23 -17 31 -11
68 11 84 20 14 24 13 50 -14 16 -16 29 -35 29 -43z m-2550 -45 c0 -14 -23 -28
-47 -30 -23 -1 -38 12 -29 26 7 11 76 14 76 4z m2540 -210 c0 -25 -7 -43 -20
-55 -24 -20 -17 -41 11 -32 16 5 19 1 19 -24 0 -17 -4 -31 -10 -31 -13 0 -50
37 -50 50 0 6 -11 10 -25 10 -21 0 -25 5 -25 28 0 36 18 60 50 64 14 2 26 9
26 16 2 22 4 23 14 17 6 -3 10 -23 10 -43z m-83 -98 c-3 -4 4 -14 16 -24 18
-15 19 -20 8 -34 -16 -19 -31 -20 -55 -3 -16 12 -16 14 4 40 12 15 24 27 27
27 4 0 4 -3 0 -6z m-2407 -59 c16 -8 35 -14 42 -13 6 2 14 -5 16 -16 2 -11 0
-16 -7 -12 -6 4 -11 1 -11 -7 0 -8 -8 -18 -17 -21 -18 -7 -52 27 -53 53 0 8
-3 11 -7 7 -5 -4 -8 -13 -8 -18 0 -6 -6 -13 -12 -15 -18 -6 -16 23 3 41 19 19
18 19 54 1z m2474 -31 c17 -16 18 -38 7 -89 -6 -27 -7 -28 -13 -8 -5 19 -9 21
-44 12 -58 -13 -64 -11 -64 18 0 25 1 25 18 10 23 -21 36 -21 51 -3 9 11 9 14
-1 13 -39 -1 -48 4 -48 28 0 17 4 23 14 19 8 -3 23 -1 33 5 24 14 29 14 47 -5z
m-2410 -60 c9 -8 16 -26 16 -40 0 -21 -5 -24 -37 -24 -40 0 -73 23 -73 51 0
13 8 17 30 17 17 -1 33 2 37 5 9 9 9 9 27 -9z m2384 -78 c-3 -18 -11 -21 -53
-24 -46 -3 -48 -2 -30 12 19 13 19 15 3 21 -25 10 -23 28 2 20 11 -3 28 -2 37
4 23 12 45 -5 41 -33z m-2430 -14 c12 -2 28 -12 35 -22 7 -9 19 -19 27 -23 13
-4 12 -6 -1 -6 -9 -1 -24 -17 -33 -36 -20 -42 -34 -44 -66 -10 -23 24 -23 25
-3 25 25 0 47 25 39 45 -3 8 -15 14 -28 12 -15 -1 -23 4 -26 17 -3 15 0 17 14
11 11 -4 29 -10 42 -13z m2460 -39 c-2 -18 -10 -29 -22 -31 -11 -3 -16 0 -12
7 4 6 -5 16 -21 23 l-28 11 30 7 c53 13 57 12 53 -17z m-2508 6 c0 -8 5 -7 15
1 21 18 33 3 13 -16 -12 -13 -20 -14 -37 -5 -24 13 -28 31 -6 31 8 0 15 -5 15
-11z m2446 -31 c19 -14 23 -45 10 -70 -7 -13 -9 -34 -6 -47 5 -21 7 -22 19 -7
20 23 27 13 23 -33 -3 -32 -8 -41 -23 -41 -10 0 -23 8 -29 18 -9 14 -11 14 -7
1 3 -9 1 -21 -3 -25 -5 -5 -11 -20 -13 -34 -6 -40 -25 -34 -29 9 -4 47 6 81
24 81 7 0 13 11 13 25 0 28 -19 33 -41 10 -9 -8 -21 -15 -27 -15 -7 0 -4 7 7
15 10 8 16 21 13 29 -4 10 -1 13 7 10 16 -6 27 28 15 47 -5 8 -9 22 -9 32 0
14 5 17 23 11 12 -3 27 -11 33 -16z m-2332 -20 c16 -17 19 -77 5 -94 -15 -18
-29 -18 -29 1 0 8 5 15 10 15 6 0 10 11 10 24 0 14 -4 28 -10 31 -11 7 -14 35
-4 35 3 0 11 -6 18 -12z m-14 -60 c0 -5 -4 -8 -10 -8 -5 0 -10 10 -10 23 0 18
2 19 10 7 5 -8 10 -18 10 -22z m-86 -13 c-4 -8 -10 -15 -15 -15 -4 0 -6 7 -3
15 4 8 10 15 15 15 4 0 6 -7 3 -15z m47 -24 c-9 -6 -5 -10 14 -15 15 -4 34
-14 42 -21 13 -13 11 -15 -9 -15 -29 0 -39 -8 -57 -42 -15 -30 -23 -29 -28 1
-1 11 4 22 12 25 17 6 20 42 5 51 -16 10 -12 23 8 27 22 6 30 -1 13 -11z
m2309 -31 c0 -5 -2 -10 -4 -10 -3 0 -8 5 -11 10 -3 6 -1 10 4 10 6 0 11 -4 11
-10z m-2263 -57 c-9 -9 -19 -14 -23 -11 -10 10 6 28 24 28 15 0 15 -1 -1 -17z
m41 -38 c-1 -20 -6 -35 -14 -35 -6 0 -14 -7 -18 -15 -7 -19 -17 -19 -43 2 -27
22 -15 52 30 73 41 20 47 17 45 -25z m2232 -5 c0 -5 -5 -10 -11 -10 -5 0 -7 5
-4 10 3 6 8 10 11 10 2 0 4 -4 4 -10z m86 -29 c15 12 16 10 9 -21 -9 -42 -33
-80 -50 -80 -11 0 -35 22 -49 47 -10 18 45 65 61 51 9 -8 17 -7 29 3z m-2356
-49 c3 -3 -1 -7 -8 -9 -7 -3 -19 -11 -26 -19 -8 -8 -20 -14 -27 -14 -7 0 -9 3
-6 7 4 3 2 12 -4 19 -17 21 -1 34 34 27 18 -3 34 -8 37 -11z m3725 -98 c62
-333 146 -905 245 -1654 48 -363 203 -1482 235 -1691 26 -167 23 -167 -66 6
-176 342 -387 653 -522 770 -52 44 -55 50 -71 123 -75 351 -69 792 20 1657 29
280 113 839 131 868 9 14 12 4 28 -79z m-1361 51 c-6 -16 -24 -21 -24 -7 0 11
11 22 21 22 5 0 6 -7 3 -15z m-3840 -95 c73 -455 150 -1143 177 -1580 16 -260
7 -603 -21 -768 l-20 -123 -66 -61 c-139 -130 -379 -489 -512 -765 -30 -63
-57 -112 -59 -109 -7 7 6 113 68 551 43 301 96 706 180 1370 25 204 95 701
154 1100 58 395 74 490 80 483 2 -2 11 -46 19 -98z m3776 68 c30 -22 39 -51
20 -63 -5 -3 -10 -11 -10 -16 0 -6 4 -8 9 -5 12 8 21 -18 21 -61 0 -26 -5 -36
-20 -40 -11 -3 -20 -13 -20 -23 0 -10 -7 -23 -16 -31 -17 -14 -63 -19 -70 -7
-9 15 7 48 23 48 11 0 14 7 11 25 -4 18 -2 22 6 16 6 -5 21 -12 33 -15 23 -7
23 -7 5 23 -9 17 -22 31 -28 31 -6 0 -17 7 -24 15 -10 13 -9 15 8 15 12 0 24
-5 27 -10 4 -6 11 -8 16 -5 5 4 3 12 -4 19 -6 8 -15 12 -19 10 -11 -7 -21 43
-14 71 8 30 9 31 46 3z m-2350 -16 c0 -13 -12 -22 -22 -16 -10 6 -1 24 13 24
5 0 9 -4 9 -8z m61 -162 c26 -15 24 -28 -6 -36 -14 -3 -25 -12 -25 -20 0 -8
-5 -14 -11 -14 -6 0 -9 6 -6 14 3 8 -2 17 -11 21 -15 5 -14 9 8 25 30 23 27
23 51 10z m2323 -77 c0 -27 -2 -52 -4 -58 -1 -5 -3 -30 -4 -54 0 -24 -6 -46
-12 -48 -7 -2 -10 5 -7 20 4 19 -3 30 -27 47 -37 27 -38 61 -1 70 17 4 27 15
33 38 12 47 23 39 22 -15z m-2144 -46 c124 -57 437 -192 724 -311 l229 -95 56
23 c31 13 196 84 366 158 479 207 600 258 618 258 22 0 28 -28 17 -75 -5 -22
-10 -77 -10 -122 0 -98 8 -91 -166 -161 -227 -93 -504 -214 -504 -222 0 -4 13
-10 29 -13 46 -10 493 -183 564 -218 34 -18 37 -23 39 -67 0 -26 0 -54 -2 -62
-2 -8 -4 -45 -4 -82 -1 -37 -4 -69 -7 -72 -11 -12 -716 246 -953 349 -22 9
-51 15 -65 12 -14 -3 -147 -55 -296 -116 -347 -143 -592 -241 -603 -241 -6 0
-21 -6 -34 -13 -24 -12 -22 -13 46 -36 310 -103 703 -242 852 -303 l52 -21
233 87 c129 48 288 108 354 133 167 63 395 137 402 130 3 -3 0 -20 -6 -38 -16
-46 -13 -140 4 -163 13 -18 20 -15 16 7 0 4 3 7 9 7 21 0 9 -27 -28 -62 -31
-29 -84 -53 -297 -133 -143 -54 -264 -101 -268 -105 -4 -4 81 -43 190 -86 109
-43 235 -97 280 -119 59 -29 86 -38 94 -30 8 7 13 6 16 -2 8 -22 36 -15 30 7
-3 11 -1 20 5 20 5 0 6 5 3 11 -4 6 -14 8 -22 5 -8 -3 -11 -1 -8 4 3 6 12 10
20 10 7 0 15 5 17 11 5 16 36 0 44 -23 4 -15 -3 -27 -27 -47 -25 -21 -29 -30
-19 -36 9 -5 19 -1 31 14 21 26 35 11 19 -20 -7 -12 -10 -32 -7 -45 5 -28 4
-28 -24 -11 -17 10 -23 10 -26 0 -7 -19 -20 -15 -26 7 -4 17 -2 20 16 15 17
-5 14 1 -13 24 -19 17 -38 31 -42 31 -8 0 -12 -61 -13 -182 0 -31 -2 -59 -6
-62 -7 -7 -301 102 -655 242 -154 62 -289 112 -300 112 -26 0 -131 -36 -254
-87 -52 -22 -184 -77 -293 -122 -109 -46 -201 -80 -204 -77 -3 3 5 10 18 15
13 5 19 10 14 10 -6 1 -12 11 -12 23 -1 13 -8 33 -15 46 -11 20 -10 25 5 33
32 19 7 78 -33 79 -17 1 -56 28 -49 34 5 5 59 29 239 105 159 67 177 77 169
86 -4 3 -94 37 -200 76 -107 39 -206 75 -221 81 -16 5 -28 14 -28 18 0 12 -61
41 -71 34 -5 -3 -6 2 -3 10 4 11 -2 19 -17 25 -18 7 -19 10 -6 10 9 1 17 7 17
15 0 11 -9 13 -34 9 -28 -4 -34 -2 -39 16 -6 23 18 42 41 34 11 -4 13 0 16 29
1 6 -7 12 -16 14 -11 1 -15 -3 -11 -12 3 -8 0 -14 -5 -14 -6 0 -23 -11 -37
-24 -24 -22 -25 -25 -9 -40 18 -19 18 -18 -13 -35 -15 -8 -23 -8 -23 -1 0 5 7
10 15 10 14 0 13 3 -1 25 -15 23 -15 26 1 41 26 27 38 66 23 75 -7 5 -17 4
-22 -1 -16 -16 -36 -11 -36 8 0 25 19 42 47 42 13 0 23 5 23 10 0 6 -5 10 -12
10 -6 0 -8 3 -5 6 4 4 13 1 21 -5 8 -7 23 -11 33 -9 14 4 12 7 -12 19 -44 21
-79 56 -64 65 9 5 7 11 -6 21 -27 19 -14 16 44 -11 28 -12 47 -26 43 -31 -4
-4 2 -5 13 -3 11 2 19 10 18 16 -2 7 6 12 17 12 31 0 24 20 -7 21 -16 1 -21 3
-12 6 16 4 33 42 24 52 -3 2 -12 -4 -20 -15 -13 -16 -16 -17 -25 -4 -9 13 -12
13 -21 -2 -6 -11 -21 -18 -37 -17 -15 0 -21 3 -14 6 6 2 12 11 12 18 0 7 6 16
13 19 6 3 1 3 -13 0 -14 -3 -33 -16 -42 -28 -15 -18 -19 -19 -28 -6 -6 10 -5
19 4 28 18 19 86 33 106 22 9 -5 22 -5 31 1 10 6 10 9 2 9 -7 0 -13 6 -13 14
0 9 -12 14 -37 14 -22 0 -41 6 -49 16 -6 9 -16 16 -23 16 -24 0 -11 49 19 71
42 31 48 53 13 46 -35 -7 -63 8 -63 33 0 15 7 20 29 20 17 0 31 -6 35 -15 3
-9 14 -15 23 -13 18 3 24 -13 39 -107 6 -36 7 -37 15 -17 5 12 13 22 19 22 6
0 27 10 48 23 20 13 78 41 127 62 50 21 97 42 105 47 26 14 152 69 233 100 49
19 75 34 69 40 -5 5 -118 56 -250 113 -232 99 -349 157 -364 179 -4 6 5 15 20
22 42 17 53 37 50 90 -2 34 -8 50 -23 58 -31 17 -56 49 -50 63 2 8 1 11 -4 8
-5 -3 -13 -1 -16 5 -4 6 -15 8 -26 5 -11 -4 -19 -2 -19 4 0 6 -10 11 -23 11
-32 0 -62 24 -54 43 9 23 59 26 77 5 8 -9 58 -37 110 -61z m-198 7 c-5 -26
-10 -30 -24 -16 -9 9 -9 12 1 12 8 0 11 6 7 16 -4 10 -1 14 6 11 7 -2 11 -13
10 -23z m46 -16 c-2 -8 9 -14 25 -16 15 -2 27 -6 27 -10 0 -9 -40 -36 -63 -42
-10 -3 -17 -8 -15 -11 5 -9 -23 -39 -36 -39 -6 0 -4 5 4 10 13 9 13 12 -3 21
-21 13 -13 29 15 29 14 0 18 5 14 16 -7 17 10 54 24 54 6 0 9 -6 8 -12z m87
-16 c-3 -3 -11 0 -18 7 -9 10 -8 11 6 5 10 -3 15 -9 12 -12z m-17 -55 c2 -10
-3 -17 -12 -17 -18 0 -29 16 -21 31 9 14 29 6 33 -14z m2172 -2 c6 -8 9 -18 6
-24 -3 -5 1 -12 9 -15 23 -8 37 -55 30 -99 -5 -27 -11 -37 -21 -33 -8 3 -14 1
-14 -4 0 -5 8 -10 18 -13 16 -4 16 -4 -1 -12 -10 -4 -35 -25 -56 -46 -21 -22
-43 -39 -49 -39 -18 0 -14 30 4 37 12 4 13 8 3 14 -10 6 -10 11 0 23 7 9 11
22 8 30 -6 16 22 30 57 31 27 0 31 22 6 30 -29 9 -47 50 -30 70 8 10 9 15 1
15 -6 0 -11 -4 -11 -10 0 -15 -17 -12 -23 4 -3 8 -3 24 0 35 6 25 44 29 63 6z
m-2245 -35 c-5 -15 0 -22 20 -30 36 -14 58 -13 49 3 -4 6 -3 9 1 4 5 -4 10
-16 12 -27 1 -11 4 -25 5 -32 2 -8 -5 -12 -19 -10 -12 2 -24 -1 -27 -6 -3 -5
-19 -7 -35 -4 -17 2 -29 8 -26 12 3 5 1 11 -5 15 -6 4 -8 10 -5 15 3 4 -4 6
-15 3 -13 -4 -20 0 -20 10 0 8 8 14 17 13 10 0 23 11 31 27 15 31 26 36 17 7z
m41 -17 c-10 -10 -19 5 -10 18 6 11 8 11 12 0 2 -7 1 -15 -2 -18z m2180 -80
c-6 -6 -36 9 -36 18 0 5 9 4 20 -3 10 -7 18 -14 16 -15z m-2206 -34 c8 -15 15
-17 24 -10 9 7 16 7 24 -1 25 -25 4 -60 -23 -38 -9 7 -15 8 -20 0 -3 -5 -10
-10 -14 -10 -15 0 -43 51 -37 66 8 21 34 17 46 -7z m-58 -81 c-4 -28 -6 -30
-12 -13 -8 21 -3 45 9 45 4 0 5 -15 3 -32z m38 2 c0 -5 10 -10 22 -10 16 0 19
-3 11 -11 -8 -8 -17 -7 -32 3 -22 14 -28 28 -11 28 6 0 10 -4 10 -10z m2240
-20 c0 -5 -4 -10 -10 -10 -5 0 -10 5 -10 10 0 6 5 10 10 10 6 0 10 -4 10 -10z
m44 -39 c-1 -60 -16 -71 -61 -46 -34 19 -58 63 -28 52 7 -3 17 -1 23 5 6 6 16
5 30 -3 27 -17 40 -4 23 23 -10 17 -10 19 1 16 8 -3 13 -20 12 -47z m-2224 14
c0 -8 7 -15 15 -15 8 0 16 -9 16 -20 1 -11 2 -28 3 -37 0 -10 -6 -18 -14 -18
-10 0 -15 10 -15 28 1 15 -3 27 -7 27 -4 0 -8 -4 -8 -9 0 -8 -49 -25 -55 -19
-1 2 -6 13 -9 26 -6 19 -2 25 26 37 42 18 48 18 48 0z m2131 -83 c-8 -14 -4
-20 20 -31 17 -7 29 -20 29 -31 0 -18 -62 -80 -80 -80 -6 0 -10 17 -10 38 0
26 3 33 9 23 8 -12 12 -12 25 -2 20 17 10 34 -15 26 -21 -7 -25 5 -7 23 9 9 9
15 0 24 -19 19 -14 28 13 28 22 0 24 -3 16 -18z m-2181 -1 c0 -5 -7 -14 -15
-21 -12 -10 -15 -10 -15 2 0 8 3 18 7 21 9 10 23 9 23 -2z m2243 -22 c12 -12
15 -19 7 -15 -8 3 -23 9 -32 12 -10 4 -18 10 -18 15 0 16 20 10 43 -12z
m-2193 4 c0 -26 -27 -73 -40 -71 -16 4 -21 33 -9 58 7 15 49 25 49 13z m37
-29 c-3 -3 -12 -4 -19 -1 -8 3 -5 6 6 6 11 1 17 -2 13 -5z m-107 -20 c0 -8 -5
-12 -10 -9 -6 4 -8 11 -5 16 9 14 15 11 15 -7z m20 -40 c0 -2 -7 -4 -15 -4 -8
0 -15 4 -15 10 0 5 7 7 15 4 8 -4 15 -8 15 -10z m99 -69 c1 -33 -14 -63 -25
-52 -4 3 -1 13 6 22 7 9 10 19 6 23 -4 4 -12 -1 -17 -11 -13 -22 -30 -22 -57
3 -28 26 -28 40 1 41 20 1 20 2 2 6 -11 3 -24 9 -30 15 -7 6 -7 9 0 7 20 -6
85 12 86 24 1 24 28 -49 28 -78z m2163 48 c3 -31 -12 -113 -22 -113 -3 0 -14
14 -23 30 -10 17 -22 30 -27 30 -5 0 -8 9 -7 20 1 11 6 20 12 20 6 0 18 9 28
20 23 27 35 25 39 -7z m-104 -54 c7 -11 10 -30 6 -42 -6 -19 -5 -20 9 -9 18
15 37 8 37 -13 0 -8 9 -19 20 -25 26 -14 30 -96 4 -86 -11 4 -14 0 -12 -17 2
-12 8 -25 13 -29 6 -4 0 -8 -12 -8 -13 0 -23 -4 -23 -10 0 -5 6 -10 14 -10 19
0 27 -13 17 -28 -6 -9 -14 -7 -35 9 -15 12 -25 24 -22 27 4 3 0 12 -8 21 -8 9
-16 25 -18 36 -2 15 3 21 25 23 19 2 27 9 27 23 0 10 5 19 10 19 6 0 10 -4 10
-10 0 -5 5 -10 10 -10 12 0 13 10 1 28 -6 10 -15 9 -44 -8 -35 -21 -57 -20
-57 2 0 6 9 8 20 5 18 -4 20 -2 14 16 -4 12 -10 24 -14 27 -10 7 -22 90 -13
90 5 0 14 -9 21 -21z m-2159 -130 c-9 -17 -13 -19 -19 -8 -11 16 -4 29 16 29
12 0 13 -4 3 -21z m16 -109 c3 -5 1 -10 -4 -10 -6 0 -11 5 -11 10 0 6 2 10 4
10 3 0 8 -4 11 -10z m2145 -10 c0 -5 -4 -10 -10 -10 -5 0 -10 5 -10 10 0 6 5
10 10 10 6 0 10 -4 10 -10z m49 -51 c12 -21 12 -22 -18 -16 -18 4 -31 2 -31
-3 0 -6 5 -10 10 -10 6 0 21 -10 34 -22 20 -20 22 -28 14 -55 -5 -19 -15 -33
-24 -33 -8 0 -13 4 -10 8 2 4 -8 13 -23 20 -24 11 -29 20 -34 59 -4 37 -1 50
11 60 26 19 56 15 71 -8z m-2109 -69 c0 -5 -7 -10 -16 -10 -8 0 -12 5 -9 10 3
6 10 10 16 10 5 0 9 -4 9 -10z m-60 -70 c0 -5 -4 -10 -10 -10 -5 0 -10 5 -10
10 0 6 5 10 10 10 6 0 10 -4 10 -10z m2093 -4 c6 -15 -1 -26 -15 -26 -4 0 -8
9 -8 20 0 23 15 27 23 6z m48 -27 c30 -16 40 -51 26 -95 -6 -22 -15 -42 -20
-45 -5 -4 -1 -12 9 -18 11 -6 15 -11 9 -11 -12 0 -16 -50 -4 -50 5 0 9 -4 9
-9 0 -5 -9 -7 -20 -4 -24 6 -27 -12 -4 -21 10 -4 14 -14 11 -26 -3 -11 -1 -23
4 -26 15 -9 10 -40 -10 -58 -18 -16 -20 -16 -40 6 -12 12 -17 24 -11 26 5 2
10 12 10 23 0 11 10 24 23 29 20 9 20 9 -8 7 -22 -1 -31 -8 -36 -27 -4 -14 -7
-22 -8 -17 -1 4 0 9 2 10 1 2 -3 10 -10 18 -10 12 -6 21 18 47 17 18 27 37 24
42 -3 5 0 7 8 4 32 -12 25 16 -9 37 -22 13 -31 24 -25 29 8 4 5 13 -9 25 -25
23 -26 35 -1 35 18 0 31 19 31 43 -1 7 -10 1 -20 -12 -13 -15 -20 -18 -20 -9
0 14 35 58 46 58 3 0 14 -5 25 -11z m-2084 -224 c-4 -8 5 -22 20 -33 22 -16
26 -27 29 -85 3 -64 3 -67 -16 -57 -11 6 -20 15 -20 20 0 6 -7 10 -15 10 -16
0 -21 15 -7 23 4 2 2 3 -5 1 -24 -6 -21 10 9 40 27 26 29 32 14 34 -10 2 -28
-5 -40 -17 -21 -20 -22 -20 -34 -1 -10 16 -7 24 14 50 27 31 61 42 51 15z
m2023 -15 c0 -5 -4 -10 -10 -10 -5 0 -10 5 -10 10 0 6 5 10 10 10 6 0 10 -4
10 -10z m-7 -119 c-4 -17 -1 -21 18 -21 l24 -1 -24 -19 c-33 -28 -51 -11 -51
51 0 48 0 49 19 30 12 -12 17 -27 14 -40z m-2073 20 c0 -5 17 -20 37 -32 21
-13 31 -25 24 -27 -11 -4 -11 -6 0 -13 11 -7 9 -9 -6 -9 -21 0 -44 22 -64 59
-14 25 -14 31 -1 31 6 0 10 -4 10 -9z m2160 -51 c0 -5 -7 -10 -16 -10 -8 0
-12 5 -9 10 3 6 10 10 16 10 5 0 9 -4 9 -10z m-5 -50 c15 -16 17 -26 9 -47
-12 -34 -34 -41 -41 -14 -3 12 -11 21 -19 21 -7 0 -16 5 -20 11 -4 8 1 9 16 4
16 -5 21 -4 18 6 -3 8 -16 13 -32 11 -32 -3 -34 5 -3 18 35 14 53 12 72 -10z
m-2115 -5 c11 -13 8 -19 -14 -40 -15 -14 -29 -25 -31 -25 -9 0 3 54 14 58 6 2
9 8 5 13 -9 15 13 10 26 -6z m63 -42 c22 -54 21 -104 -4 -110 -10 -3 -19 -9
-19 -14 0 -12 -68 23 -74 39 -3 6 0 12 7 12 7 0 19 -6 26 -12 11 -11 12 -9 6
10 -4 13 -2 22 4 22 6 0 11 -11 11 -25 0 -14 5 -25 10 -25 15 0 12 25 -7 60
-17 30 -17 32 1 45 10 7 15 18 11 24 -3 6 -2 11 3 11 5 0 16 -17 25 -37z
m1969 -3 c12 -11 33 -28 45 -37 12 -10 24 -29 28 -43 5 -21 4 -22 -5 -7 -16
25 -30 21 -41 -12 -12 -33 -44 -47 -54 -23 -3 9 1 19 9 24 16 9 11 37 -7 50
-12 7 -17 68 -6 68 4 0 18 -9 31 -20z m-1957 -130 c3 -5 1 -10 -4 -10 -6 0
-11 5 -11 10 0 6 2 10 4 10 3 0 8 -4 11 -10z m-81 -57 c-40 -39 -48 -21 -12
30 20 27 22 28 29 11 5 -13 0 -26 -17 -41z m68 -18 c12 -27 31 -35 22 -10 -4
8 -2 15 4 15 8 0 14 -17 28 -89 4 -23 -7 -41 -26 -41 -18 0 -25 -6 -59 -46
-13 -16 -15 -15 -28 2 -7 10 -13 12 -13 5 0 -7 -4 -9 -10 -6 -18 11 -10 23 23
34 54 18 91 54 83 79 -9 26 -30 18 -23 -8 6 -25 -60 -34 -85 -12 -21 18 -24
40 -4 22 19 -15 58 -9 64 10 4 12 2 13 -9 3 -19 -19 -29 -16 -29 7 0 26 21 60
38 60 7 0 18 -11 24 -25z m2021 -137 c13 1 17 -4 13 -14 -3 -9 -6 -19 -6 -23
0 -11 -79 -45 -86 -38 -4 4 1 18 10 31 21 33 20 36 -6 37 -22 1 -22 1 2 9 14
4 32 6 40 3 8 -3 23 -5 33 -5z m-1973 -18 c0 -5 -4 -10 -9 -10 -6 0 -13 5 -16
10 -3 6 1 10 9 10 9 0 16 -4 16 -10z m-26 -26 c3 -9 6 -27 6 -40 0 -15 6 -24
16 -24 9 0 14 -7 12 -17 -3 -12 -12 -17 -28 -15 -45 4 -54 10 -40 27 10 12 9
15 -8 15 -32 0 -34 15 -5 44 30 30 39 32 47 10z m36 -24 c0 -11 -4 -20 -8 -20
-4 0 -8 9 -9 20 -1 11 2 20 8 20 5 0 9 -9 9 -20z m-130 -11 c0 -5 -4 -9 -8 -9
-5 0 -9 7 -9 15 0 8 4 12 9 9 4 -3 8 -9 8 -15z m2120 -33 c0 -56 -19 -93 -52
-105 -16 -6 -28 -15 -28 -20 0 -14 13 -14 28 1 8 8 16 5 31 -13 23 -27 25 -35
12 -43 -5 -3 -12 1 -15 10 -5 12 -8 13 -20 2 -7 -7 -11 -19 -9 -25 7 -18 -17
-16 -38 3 -15 13 -16 21 -8 37 10 17 9 19 -10 14 -11 -3 -24 -1 -27 4 -3 5 0
9 6 9 6 0 9 4 6 9 -3 4 6 13 21 20 l26 12 -23 24 c-27 28 -12 33 26 9 39 -26
40 -8 0 26 -20 18 -36 37 -36 44 0 6 7 3 15 -8 16 -21 48 -15 39 8 -3 8 -1 17
5 21 6 3 11 1 11 -4 0 -6 5 -11 10 -11 6 0 10 7 10 16 0 8 5 12 10 9 6 -3 10
-25 10 -49z m-2101 -17 c17 -16 20 -24 10 -35 -16 -20 -29 -17 -29 5 0 11 -4
23 -10 26 -12 7 -13 25 -2 25 5 0 18 -9 31 -21z m78 -36 c2 -6 -7 -8 -23 -5
-19 3 -22 7 -12 13 15 10 30 7 35 -8z m2 -37 c12 -13 23 -39 25 -61 2 -20 9
-41 16 -45 8 -5 10 -20 5 -49 -6 -37 -9 -41 -28 -35 -12 3 -29 13 -38 20 -8 8
-24 14 -34 14 -14 0 -15 3 -5 15 7 8 16 15 21 15 18 0 57 46 50 59 -7 10 -12
10 -28 0 -13 -7 -28 -9 -39 -4 -18 8 -18 8 1 13 31 6 40 19 25 37 -7 9 -21 13
-31 10 -24 -8 -24 4 -1 21 24 19 36 17 61 -10z m-59 -100 c0 -8 -7 -17 -16
-20 -23 -9 -24 -8 -24 14 0 13 7 20 20 20 11 0 20 -6 20 -14z m1950 4 c0 -5 7
-10 15 -10 8 0 15 -7 15 -15 0 -9 -10 -15 -26 -15 -14 0 -23 4 -19 9 3 5 1 12
-5 16 -12 7 -4 25 11 25 5 0 9 -4 9 -10z m114 -25 c-4 -8 -10 -12 -15 -9 -11
6 -2 24 11 24 5 0 7 -7 4 -15z m-34 -21 c0 -14 -3 -14 -15 -4 -8 7 -15 14 -15
16 0 2 7 4 15 4 8 0 15 -7 15 -16z m-35 -34 c-3 -5 -13 -10 -21 -10 -8 0 -12
5 -9 10 3 6 13 10 21 10 8 0 12 -4 9 -10z m3485 -6573 c0 -20 0 -20 -15 -1
-20 27 -20 51 0 34 8 -7 15 -22 15 -33z m-9022 -149 c13 -17 -6 -120 -21 -111
-6 4 -8 0 -4 -10 4 -10 1 -17 -6 -18 -9 0 -9 -2 1 -6 6 -2 12 -9 12 -14 0 -4
-6 -6 -14 -3 -15 6 -19 51 -4 60 5 3 4 12 -3 20 -9 11 -8 14 7 14 12 0 15 3 8
8 -10 6 -12 28 -5 65 2 11 17 8 29 -5z m9026 -17 c3 -5 -3 -11 -15 -14 -16 -4
-18 -3 -8 9 13 16 16 17 23 5z m20 -136 c3 -8 1 -15 -3 -15 -5 0 -11 7 -15 15
-3 8 -1 15 3 15 5 0 11 -7 15 -15z m-9075 -24 c7 -5 9 -11 5 -14 -5 -3 -15 1
-22 9 -14 16 -5 18 17 5z m9094 -52 c3 -13 1 -19 -6 -16 -15 5 -22 37 -9 37 5
0 12 -9 15 -21z m-9156 -411 c-3 -8 -6 -5 -6 6 -1 11 2 17 5 13 3 -3 4 -12 1
-19z m8993 -448 c0 -5 -4 -10 -10 -10 -5 0 -10 5 -10 10 0 6 5 10 10 10 6 0
10 -4 10 -10z"/>
<path d="M6698 15943 c7 -3 16 -2 19 1 4 3 -2 6 -13 5 -11 0 -14 -3 -6 -6z"/>
<path d="M10230 15742 c0 -5 9 -17 20 -27 16 -14 20 -15 20 -4 0 16 -19 39
-32 39 -4 0 -8 -4 -8 -8z"/>
<path d="M7400 14255 c0 -25 4 -30 20 -26 21 4 31 24 17 33 -19 12 -37 9 -37
-7z"/>
<path d="M7517 14229 c8 -8 16 -8 30 0 16 9 14 10 -11 11 -22 0 -27 -3 -19
-11z"/>
<path d="M7515 14201 c-3 -5 -1 -12 5 -16 12 -7 30 2 30 16 0 12 -27 12 -35 0z"/>
<path d="M7565 14170 c3 -5 10 -10 16 -10 5 0 9 5 9 10 0 6 -7 10 -16 10 -8 0
-12 -4 -9 -10z"/>
<path d="M7270 13290 c0 -5 9 -10 20 -10 11 0 20 5 20 10 0 6 -9 10 -20 10
-11 0 -20 -4 -20 -10z"/>
<path d="M7280 13070 c-9 -6 -10 -10 -3 -10 6 0 15 5 18 10 8 12 4 12 -15 0z"/>
<path d="M7240 13030 c0 -5 5 -10 10 -10 6 0 10 5 10 10 0 6 -4 10 -10 10 -5
0 -10 -4 -10 -10z"/>
<path d="M7400 12920 c0 -5 4 -10 9 -10 6 0 13 5 16 10 3 6 -1 10 -9 10 -9 0
-16 -4 -16 -10z"/>
<path d="M7391 12891 c-8 -6 -9 -11 -3 -15 6 -3 14 -1 17 5 9 14 2 20 -14 10z"/>
<path d="M7275 12730 c-10 -11 -16 -22 -13 -25 10 -10 58 15 58 30 0 21 -24
19 -45 -5z"/>
<path d="M7315 12670 c3 -5 8 -10 11 -10 2 0 4 5 4 10 0 6 -5 10 -11 10 -5 0
-7 -4 -4 -10z"/>
<path d="M7530 12050 c-13 -8 -12 -10 3 -10 9 0 17 5 17 10 0 12 -1 12 -20 0z"/>
<path d="M7400 11960 c0 -5 5 -10 11 -10 5 0 7 5 4 10 -3 6 -8 10 -11 10 -2 0
-4 -4 -4 -10z"/>
<path d="M7426 11915 c-3 -9 -18 -15 -36 -15 -28 0 -44 -19 -17 -21 52 -5 90
12 80 37 -7 18 -19 18 -27 -1z"/>
<path d="M7070 14099 c0 -5 5 -7 10 -4 6 3 10 8 10 11 0 2 -4 4 -10 4 -5 0
-10 -5 -10 -11z"/>
<path d="M7102 14089 c-8 -12 -8 -19 -2 -19 5 0 10 4 10 9 0 5 8 11 18 13 15
3 15 4 1 10 -9 4 -20 -1 -27 -13z"/>
<path d="M7104 14049 c-8 -13 16 -21 42 -15 13 4 24 10 24 16 0 11 -59 10 -66
-1z"/>
<path d="M9868 13885 c-3 -14 -1 -25 3 -25 5 0 9 7 9 15 0 8 5 15 10 15 6 0
10 5 10 10 0 21 -28 9 -32 -15z"/>
<path d="M9830 13834 c0 -8 5 -12 10 -9 6 3 10 10 10 16 0 5 -4 9 -10 9 -5 0
-10 -7 -10 -16z"/>
<path d="M9875 13790 c3 -5 13 -10 21 -10 8 0 14 5 14 10 0 6 -9 10 -21 10
-11 0 -17 -4 -14 -10z"/>
<path d="M7165 13619 c-4 -6 -5 -12 -2 -15 2 -3 7 2 10 11 7 17 1 20 -8 4z"/>
<path d="M9710 12616 c0 -9 5 -16 10 -16 6 0 10 4 10 9 0 6 -4 13 -10 16 -5 3
-10 -1 -10 -9z"/>
<path d="M7635 10842 c-38 -8 -40 -22 -2 -22 20 0 37 4 37 9 0 14 -12 18 -35
13z"/>
<path d="M7536 10528 l-39 -20 31 -20 c31 -20 62 -19 62 2 0 5 -9 10 -21 10
-12 0 -19 5 -16 13 2 6 11 11 21 9 9 -2 16 4 16 13 0 19 -5 18 -54 -7z"/>
<path d="M9630 11386 c0 -2 7 -6 15 -10 8 -3 15 -1 15 4 0 6 -7 10 -15 10 -8
0 -15 -2 -15 -4z"/>
<path d="M9681 11034 c0 -11 3 -14 6 -6 3 7 2 16 -1 19 -3 4 -6 -2 -5 -13z"/>
<path d="M9585 10649 c-11 -17 1 -21 15 -4 8 9 8 15 2 15 -6 0 -14 -5 -17 -11z"/>
<path d="M9602 10497 c-10 -11 -9 -17 3 -27 22 -18 39 0 22 24 -11 15 -15 16
-25 3z"/>
<path d="M7495 10299 c-4 -6 -5 -12 -2 -15 2 -3 7 2 10 11 7 17 1 20 -8 4z"/>
<path d="M12851 3964 c0 -11 3 -14 6 -6 3 7 2 16 -1 19 -3 4 -6 -2 -5 -13z"/>
<path d="M4160 3880 c0 -5 5 -10 11 -10 5 0 7 5 4 10 -3 6 -8 10 -11 10 -2 0
-4 -4 -4 -10z"/>
<path d="M12862 3854 c5 -20 7 -42 4 -50 -3 -7 -1 -16 4 -19 5 -3 9 -20 9 -38
-1 -32 3 -60 20 -127 8 -30 9 -31 10 -9 1 14 -3 50 -9 80 -5 30 -15 87 -21
127 -6 39 -15 72 -19 72 -5 0 -4 -16 2 -36z"/>
<path d="M4155 3850 c-4 -6 1 -7 11 -3 12 4 15 3 10 -5 -4 -7 -2 -12 3 -12 6
0 11 7 11 15 0 17 -25 20 -35 5z"/>
<path d="M4145 3740 c-3 -5 -1 -10 4 -10 6 0 11 5 11 10 0 6 -2 10 -4 10 -3 0
-8 -4 -11 -10z"/>
<path d="M12914 3530 c2 -30 6 -62 9 -70 3 -8 8 -26 11 -40 2 -14 2 2 0 35 -3
33 -9 76 -14 95 -8 30 -8 28 -6 -20z"/>
<path d="M12939 3385 c-7 -11 16 -153 25 -163 9 -8 6 24 -7 103 -7 39 -15 66
-18 60z"/>
<path d="M3912 1575 c0 -16 2 -22 5 -12 2 9 2 23 0 30 -3 6 -5 -1 -5 -18z"/>
<path d="M13100 1588 c0 -9 5 -20 10 -23 13 -8 13 5 0 25 -8 13 -10 13 -10 -2z"/>
<path d="M13192 1505 c-1 -50 2 -65 13 -65 10 0 13 10 10 38 -1 20 -3 49 -4
65 -2 55 -17 25 -19 -38z"/>
<path d="M3996 1552 c-8 -14 12 -38 23 -27 6 6 4 14 -4 22 -8 7 -16 9 -19 5z"/>
<path d="M3799 1525 c-1 -14 -2 -30 -3 -37 -1 -6 4 -13 9 -15 6 -2 11 15 12
37 2 43 -16 57 -18 15z"/>
<path d="M13116 1524 c9 -39 24 -54 24 -25 0 12 -7 29 -15 38 -14 14 -15 13
-9 -13z"/>
<path d="M4090 1540 c-1 -3 -3 -14 -5 -25 -2 -11 -11 -25 -20 -31 -9 -7 -12
-15 -6 -18 5 -3 11 0 14 6 2 7 8 10 12 6 5 -5 0 -17 -10 -28 -13 -15 -15 -23
-7 -33 7 -8 8 -17 3 -23 -11 -10 -20 -214 -10 -214 3 0 14 53 24 118 10 64 24
127 31 139 18 29 18 47 0 40 -9 -4 -13 -1 -10 7 3 7 0 23 -5 37 -5 13 -10 22
-11 19z"/>
<path d="M3876 1515 c-3 -8 -1 -15 4 -15 6 0 10 7 10 15 0 8 -2 15 -4 15 -2 0
-6 -7 -10 -15z"/>
<path d="M3985 1468 c-14 -86 -27 -127 -44 -131 -14 -4 -14 -5 2 -6 20 -1 24
-39 4 -47 -14 -5 -18 -186 -4 -200 4 -4 7 6 7 22 0 16 8 67 17 114 8 47 17 99
18 115 2 17 8 49 13 73 6 23 8 51 5 62 -3 12 0 20 6 20 7 0 9 5 6 10 -13 20
-23 9 -30 -32z"/>
<path d="M3911 1484 c0 -11 3 -14 6 -6 3 7 2 16 -1 19 -3 4 -6 -2 -5 -13z"/>
<path d="M12970 1481 c0 -5 5 -13 10 -16 6 -3 10 -2 10 4 0 5 -4 13 -10 16 -5
3 -10 2 -10 -4z"/>
<path d="M13141 1454 c0 -11 3 -14 6 -6 3 7 2 16 -1 19 -3 4 -6 -2 -5 -13z"/>
<path d="M3792 1425 c0 -16 2 -22 5 -12 2 9 2 23 0 30 -3 6 -5 -1 -5 -18z"/>
<path d="M13214 1399 c-3 -6 -1 -16 5 -22 8 -8 11 -5 11 11 0 24 -5 28 -16 11z"/>
<path d="M12936 1377 c3 -10 9 -15 12 -12 3 3 0 11 -7 18 -10 9 -11 8 -5 -6z"/>
<path d="M3777 1343 c-4 -3 -7 -15 -7 -25 0 -12 7 -18 23 -17 15 1 17 3 6 6
-11 3 -15 11 -12 24 5 19 2 24 -10 12z"/>
<path d="M13233 1315 c0 -22 2 -30 4 -17 2 12 2 30 0 40 -3 9 -5 -1 -4 -23z"/>
<path d="M13191 1314 c0 -11 3 -14 6 -6 3 7 2 16 -1 19 -3 4 -6 -2 -5 -13z"/>
<path d="M3766 1268 c-3 -13 -6 -35 -6 -51 0 -27 0 -27 25 -11 25 16 35 54 14
54 -8 0 -8 5 1 15 10 12 9 15 -8 15 -12 0 -22 -9 -26 -22z m28 -33 c-7 -16
-24 -21 -24 -6 0 8 7 13 27 20 1 1 0 -6 -3 -14z"/>
<path d="M12960 1283 c0 -24 22 -83 30 -78 4 3 11 -1 13 -7 4 -9 5 -8 6 2 0
22 -17 59 -19 40 -1 -9 -5 -5 -11 9 -7 18 -6 27 3 33 10 6 8 8 -4 8 -10 0 -18
-3 -18 -7z"/>
<path d="M13225 1255 c-17 -14 -17 -16 -2 -11 14 4 17 -1 17 -29 0 -19 5 -35
10 -35 11 0 11 19 1 63 -6 27 -7 27 -26 12z"/>
<path d="M4901 1204 c0 -11 3 -14 6 -6 3 7 2 16 -1 19 -3 4 -6 -2 -5 -13z"/>
<path d="M13040 1180 c0 -5 -7 -10 -15 -10 -8 0 -15 -4 -15 -10 0 -5 7 -7 15
-4 8 4 15 1 15 -5 0 -6 -4 -11 -10 -11 -5 0 -10 -4 -10 -10 0 -5 7 -10 16 -10
14 0 14 -3 4 -15 -7 -8 -8 -15 -3 -15 5 0 16 11 23 25 10 19 10 27 1 39 -7 8
-10 20 -6 26 3 5 1 10 -4 10 -6 0 -11 -4 -11 -10z"/>
<path d="M4220 1160 c6 -11 13 -20 16 -20 2 0 0 9 -6 20 -6 11 -13 20 -16 20
-2 0 0 -9 6 -20z"/>
<path d="M12122 1140 c0 -14 2 -19 5 -12 2 6 2 18 0 25 -3 6 -5 1 -5 -13z"/>
<path d="M13250 1140 c0 -5 5 -10 11 -10 5 0 7 5 4 10 -3 6 -8 10 -11 10 -2 0
-4 -4 -4 -10z"/>
<path d="M5030 1078 c0 -23 3 -29 9 -19 8 12 4 51 -5 51 -2 0 -4 -15 -4 -32z"/>
<path d="M12133 1075 c0 -22 2 -30 4 -17 2 12 2 30 0 40 -3 9 -5 -1 -4 -23z"/>
<path d="M5015 1030 c-3 -5 -1 -10 4 -10 6 0 11 5 11 10 0 6 -2 10 -4 10 -3 0
-8 -4 -11 -10z"/>
<path d="M5046 1021 c-3 -5 1 -14 9 -21 11 -9 14 -8 12 9 -1 22 -12 28 -21 12z"/>
<path d="M5040 969 c0 -6 6 -9 14 -6 10 4 16 -2 18 -15 2 -12 9 -23 16 -26 16
-5 16 30 0 46 -15 15 -48 16 -48 1z"/>
<path d="M9910 966 c0 -23 158 -292 166 -283 2 2 -5 22 -16 45 -11 22 -20 48
-20 56 0 9 -9 21 -20 28 -11 7 -20 17 -20 21 0 5 -13 26 -30 47 -16 21 -30 42
-30 46 -1 11 -30 50 -30 40z"/>
<path d="M11934 945 c-1 -14 2 -25 7 -25 5 0 9 11 9 25 0 33 -15 33 -16 0z"/>
<path d="M7020 880 c0 -5 5 -10 10 -10 6 0 10 5 10 10 0 6 -4 10 -10 10 -5 0
-10 -4 -10 -10z"/>
<path d="M10020 845 c0 -8 4 -15 10 -15 5 0 7 7 4 15 -4 8 -8 15 -10 15 -2 0
-4 -7 -4 -15z"/>
<path d="M6987 790 c-10 -16 -22 -30 -28 -30 -5 0 -9 -7 -9 -15 0 -30 27 -14
48 30 24 50 16 61 -11 15z"/>
<path d="M9112 760 c0 -19 2 -27 5 -17 2 9 2 25 0 35 -3 9 -5 1 -5 -18z"/>
<path d="M6947 713 c-4 -3 -7 -11 -7 -17 0 -6 5 -5 12 2 6 6 9 14 7 17 -3 3
-9 2 -12 -2z"/>
<path d="M7940 670 c0 -6 7 -10 15 -10 8 0 15 2 15 4 0 2 -7 6 -15 10 -8 3
-15 1 -15 -4z"/>
<path d="M9115 650 c-3 -5 -1 -10 4 -10 6 0 11 5 11 10 0 6 -2 10 -4 10 -3 0
-8 -4 -11 -10z"/>
<path d="M10431 604 c0 -11 3 -14 6 -6 3 7 2 16 -1 19 -3 4 -6 -2 -5 -13z"/>
<path d="M7930 480 c0 -19 3 -21 12 -12 9 9 9 15 0 24 -9 9 -12 7 -12 -12z"/>
<path d="M7932 429 c-1 -9 -5 -32 -8 -50 -5 -26 -4 -31 5 -23 7 7 11 28 8 50
-2 22 -4 32 -5 23z"/>
<path d="M10430 385 c0 -8 5 -15 10 -15 6 0 10 7 10 15 0 8 -4 15 -10 15 -5 0
-10 -7 -10 -15z"/>
<path d="M9131 364 c0 -11 3 -14 6 -6 3 7 2 16 -1 19 -3 4 -6 -2 -5 -13z"/>
<path d="M7920 298 c0 -23 3 -38 6 -35 10 10 12 77 2 77 -4 0 -8 -19 -8 -42z"/>
<path d="M10441 314 c0 -11 3 -14 6 -6 3 7 2 16 -1 19 -3 4 -6 -2 -5 -13z"/>
<path d="M9140 280 c0 -22 3 -40 8 -40 4 0 6 18 4 40 -2 22 -6 40 -8 40 -2 0
-4 -18 -4 -40z"/>
<path d="M7910 233 c0 -12 7 -23 15 -27 13 -5 14 -2 4 17 -17 32 -19 33 -19
10z"/>
<path d="M10436 237 c3 -10 9 -15 12 -12 3 3 0 11 -7 18 -10 9 -11 8 -5 -6z"/>
<path d="M9135 220 c-4 -7 -1 -16 6 -21 17 -10 26 8 11 23 -6 6 -12 6 -17 -2z"/>
<path d="M7910 184 c0 -8 5 -12 10 -9 6 4 8 11 5 16 -9 14 -15 11 -15 -7z"/>
</g>
</svg>
