<svg width="120" height="120" viewBox="0 0 120 120" fill="none" xmlns="http://www.w3.org/2000/svg">
<path d="M70.6 25L79.75 35H100V95H20V35H40.25L49.4 25H70.6ZM75 15H45L35.85 25H20C14.5 25 10 29.5 10 35V95C10 100.5 14.5 105 20 105H100C105.5 105 110 100.5 110 95V35C110 29.5 105.5 25 100 25H84.15L75 15ZM60 50C68.25 50 75 56.75 75 65C75 73.25 68.25 80 60 80C51.75 80 45 73.25 45 65C45 56.75 51.75 50 60 50ZM60 40C46.2 40 35 51.2 35 65C35 78.8 46.2 90 60 90C73.8 90 85 78.8 85 65C85 51.2 73.8 40 60 40Z" fill="white"/>
</svg>
