<svg width="120" height="120" viewBox="0 0 120 120" fill="none" xmlns="http://www.w3.org/2000/svg">
<path d="M47.7992 26.825L40.6992 19.775L48.2992 11.475H78.2992L87.4492 21.475H103.299C108.799 21.475 113.299 25.975 113.299 31.475V91.475C113.299 91.725 113.249 91.975 113.199 92.275L103.299 82.325V31.475H83.0492L73.8992 21.475H52.6992L47.7992 26.825ZM105.749 113.025L94.1492 101.475H23.2992C17.7992 101.475 13.2992 96.975 13.2992 91.475V31.475C13.2992 28.525 14.6492 25.875 16.6992 24.025L6.69922 14.025L13.7992 6.975L112.799 105.975L105.749 113.025ZM49.2492 56.575C48.6992 58.125 48.2992 59.725 48.2992 61.475C48.2992 69.775 54.9992 76.475 63.2992 76.475C65.0492 76.475 66.6492 76.075 68.1992 75.525L49.2492 56.575ZM84.1492 91.475L75.7492 83.075C72.0992 85.225 67.8492 86.475 63.2992 86.475C49.4992 86.475 38.2992 75.275 38.2992 61.475C38.2992 56.925 39.5492 52.675 41.6992 49.025L24.1492 31.475H23.2992V91.475H84.1492ZM77.3492 56.375L87.6992 66.725C88.0992 65.025 88.2992 63.275 88.2992 61.475C88.2992 47.675 77.0992 36.475 63.2992 36.475C61.4992 36.475 59.7492 36.675 57.9992 37.075L68.3492 47.425C72.5492 48.925 75.8492 52.225 77.3492 56.375Z" fill="#3F0F9E"/>
</svg>
